<?xml version="1.0" standalone="no"?>
<!DOCTYPE svg PUBLIC "-//W3C//DTD SVG 1.1//EN" "http://www.w3.org/Graphics/SVG/1.1/DTD/svg11.dtd" >
<svg xmlns="http://www.w3.org/2000/svg">
<metadata></metadata>
<defs>
<font id="unitthin" horiz-adv-x="927" >
<font-face units-per-em="2048" ascent="1638" descent="-410" />
<missing-glyph horiz-adv-x="471" />
<glyph horiz-adv-x="2048" />
<glyph horiz-adv-x="2048" />
<glyph unicode="&#xd;" horiz-adv-x="2048" />
<glyph unicode=" "  horiz-adv-x="471" />
<glyph unicode="&#x09;" horiz-adv-x="471" />
<glyph unicode="&#xa0;" horiz-adv-x="471" />
<glyph unicode="!" horiz-adv-x="466" d="M154 68q0 34 23.5 58t55.5 24t56 -24t24 -58q0 -33 -23.5 -56.5t-56.5 -23.5t-56 23t-23 57zM190 1403h86l-10 -1061h-65z" />
<glyph unicode="&#x22;" horiz-adv-x="681" d="M174 985v469h76v-469h-76zM432 985v469h76v-469h-76z" />
<glyph unicode="#" horiz-adv-x="1091" d="M76 393v68h211l61 395h-211v68h221l58 376h73l-57 -376h311l58 376h73l-57 -376h199v-68h-209l-62 -395h209v-68h-219l-59 -393h-74l60 393h-312l-59 -393h-74l59 393h-200zM360 461h312l61 395h-311z" />
<glyph unicode="$" horiz-adv-x="997" d="M92 156l55 51q129 -149 336 -154v604q-52 21 -91.5 40.5t-83 51t-71.5 67t-46.5 86t-18.5 110.5q0 132 87.5 214.5t223.5 88.5v207h70v-209q145 -9 276 -96l-38 -60q-108 77 -238 88v-538q81 -33 135.5 -63.5t103.5 -74.5t73 -104t24 -137q0 -66 -18.5 -122.5t-57 -104 t-105 -77.5t-155.5 -36v-197h-70v195q-246 8 -391 170zM252 1014q0 -75 31 -129.5t77.5 -86.5t122.5 -65v514q-107 -6 -169 -65t-62 -168zM553 55q128 12 191 83t63 188q0 60 -17 106.5t-52.5 82t-78.5 61.5t-106 53v-574z" />
<glyph unicode="%" horiz-adv-x="1611" d="M106 965q0 161 79.5 255.5t211.5 94.5q135 0 217 -95t82 -262q0 -158 -77.5 -252t-212.5 -94q-138 0 -219 95t-81 258zM186 971q0 -145 55.5 -219t159.5 -74q215 0 215 274q0 146 -55.5 221.5t-161.5 75.5q-105 0 -159 -71t-54 -207zM377 0l774 1300h84l-774 -1300h-84z M915 338q0 161 79.5 255.5t211.5 94.5q135 0 217 -94.5t82 -261.5q0 -158 -78 -252t-213 -94q-138 0 -218.5 94.5t-80.5 257.5zM995 344q0 -145 55.5 -219t159.5 -74q105 0 160 69t55 206q0 146 -55.5 221.5t-161.5 75.5q-105 0 -159 -71.5t-54 -207.5z" />
<glyph unicode="&#x26;" horiz-adv-x="1267" d="M127 358q0 154 81 258.5t234 184.5l-18 22q-85 99 -124.5 174t-39.5 156q0 115 80 189.5t213 74.5q122 0 199 -71.5t77 -202.5q0 -213 -280 -355l377 -438q68 153 104 398l74 -5q-37 -271 -127 -452l250 -291h-97l-190 223q-159 -250 -418 -250q-89 0 -158.5 22.5 t-113.5 59.5t-72 88t-39.5 104t-11.5 111zM211 354q0 -63 15 -116t49 -99t97 -72t150 -26q236 0 369 238l-408 475q-138 -78 -205 -170.5t-67 -229.5zM342 1155q0 -76 32 -140t101 -141l33 -38q127 68 183.5 139t56.5 164q0 104 -49.5 157.5t-145.5 53.5t-153.5 -55 t-57.5 -140z" />
<glyph unicode="'" horiz-adv-x="423" d="M174 985v469h76v-469h-76z" />
<glyph unicode="(" horiz-adv-x="626" d="M135 639q0 382 96.5 602.5t284.5 331.5l33 -53q-174 -114 -250 -317t-76 -568q0 -362 77.5 -568.5t248.5 -318.5l-33 -53q-89 53 -157 131.5t-119.5 191.5t-78 269.5t-26.5 351.5z" />
<glyph unicode=")" horiz-adv-x="626" d="M78 -252q174 114 249.5 317t75.5 568q0 363 -77 569t-248 318l33 53q89 -53 157 -131.5t119.5 -191.5t78 -269.5t26.5 -351.5q0 -382 -96.5 -602.5t-284.5 -331.5z" />
<glyph unicode="*" horiz-adv-x="847" d="M109 1145l22 59l258 -94v293h70v-293l258 94l22 -59l-260 -96l168 -232l-51 -37l-172 236l-172 -236l-51 37l168 232z" />
<glyph unicode="+" horiz-adv-x="1032" d="M150 547v67h327v365h78v-365h328v-67h-328v-363h-78v363h-327z" />
<glyph unicode="," horiz-adv-x="434" d="M131 -135q38 18 64.5 51.5t27.5 71.5q-38 0 -62 23t-24 57q0 33 23.5 56t56.5 23q35 0 59.5 -28t24.5 -82q0 -80 -36.5 -137.5t-112.5 -79.5z" />
<glyph unicode="-" horiz-adv-x="581" d="M119 510v72h344v-72h-344z" />
<glyph unicode="." horiz-adv-x="434" d="M137 68q0 33 23.5 56t56.5 23t56.5 -23t23.5 -56t-23.5 -56.5t-56.5 -23.5t-56.5 23.5t-23.5 56.5z" />
<glyph unicode="/" horiz-adv-x="686" d="M41 -295l526 1845h78l-526 -1845h-78z" />
<glyph unicode="0" horiz-adv-x="1187" d="M135 643q0 318 117.5 495t341.5 177q225 0 342 -175.5t117 -490.5q0 -327 -109 -495t-346 -168q-463 0 -463 657zM219 647q0 -143 21 -250.5t65.5 -185.5t117 -118t173.5 -40q197 0 285 150t88 436q0 292 -92 450t-283 158t-283 -156t-92 -444z" />
<glyph unicode="1" horiz-adv-x="858" d="M127 1102l303 207h68v-1241h262v-68h-623v68h279v1134l-262 -147z" />
<glyph unicode="2" horiz-adv-x="940" d="M98 0v72q160 140 272.5 254.5t179.5 199t104 161t49 133t12 124.5q0 303 -275 303q-85 0 -148 -20t-147 -68l-32 58q86 52 159 75t166 23q160 0 260.5 -94t100.5 -279q0 -91 -26.5 -175t-93.5 -188t-187.5 -229t-303.5 -282h637v-68h-727z" />
<glyph unicode="3" horiz-adv-x="987" d="M51 -45l29 55q156 -76 338 -76q171 0 260.5 85t89.5 249q0 95 -26.5 163.5t-75 106.5t-107 55t-131.5 17h-117v68h99q145 0 223 77.5t78 213.5q0 130 -70.5 204t-204.5 74q-87 0 -159.5 -24t-151.5 -70l-33 55q92 56 167 81.5t179 25.5q169 0 262 -97.5t93 -240.5 q0 -249 -222 -324q62 -15 110.5 -41.5t88 -70.5t61 -112.5t21.5 -158.5q0 -186 -118 -294.5t-314 -108.5q-206 0 -369 88z" />
<glyph unicode="4" horiz-adv-x="1075" d="M90 221v76l457 1003h82l-461 -1011h575v616l82 19v-635h166v-68h-166v-340h-82v340h-653z" />
<glyph unicode="5" horiz-adv-x="987" d="M78 -51l31 61q148 -76 313 -76q182 0 270 105t88 291t-98.5 281.5t-267.5 95.5q-129 0 -250 -41l63 634h615v-67h-547l-49 -479q68 20 168 20q209 0 329.5 -118t120.5 -324q0 -209 -115 -337t-325 -128q-188 0 -346 82z" />
<glyph unicode="6" horiz-adv-x="1110" d="M139 559q0 164 31 294t86.5 223t141 160.5t186 108.5t229.5 66l16 -68q-138 -27 -238.5 -72.5t-178.5 -120.5t-123.5 -186t-59.5 -262q161 148 353 148q78 0 148 -26.5t126.5 -77.5t89.5 -133t33 -185q0 -216 -107.5 -329t-289.5 -113q-94 0 -174 36t-140.5 105.5 t-94.5 180t-34 251.5zM223 557q0 -251 96.5 -377.5t262.5 -126.5q153 0 233 96t80 275q0 174 -89 266t-235 92q-101 0 -184 -40t-162 -109q-2 -25 -2 -76z" />
<glyph unicode="7" horiz-adv-x="958" d="M86 1233v67h776v-75q-215 -259 -341 -587.5t-159 -760.5l-86 6q72 829 508 1350h-698z" />
<glyph unicode="8" horiz-adv-x="1087" d="M121 352q0 77 24 138.5t70.5 107.5t102 79t131.5 64q-146 64 -208.5 153t-62.5 202q0 144 97 232.5t264 88.5q165 0 264.5 -90.5t99.5 -228.5q0 -229 -276 -361l12 -4q183 -80 255.5 -166.5t72.5 -214.5q0 -169 -116.5 -267.5t-301.5 -98.5q-189 0 -308.5 96.5 t-119.5 269.5zM203 352q0 -148 92.5 -223.5t253.5 -75.5q152 0 244 77.5t92 209.5q0 114 -57 187t-201 137l-107 47q-164 -68 -240.5 -149.5t-76.5 -209.5zM260 1102q0 -104 51.5 -174.5t180.5 -128.5l65 -29q147 67 205.5 145t58.5 179q0 120 -75.5 188t-206.5 68 q-128 0 -203.5 -66.5t-75.5 -181.5z" />
<glyph unicode="9" horiz-adv-x="1110" d="M131 877q0 210 113.5 327t290.5 117q95 0 173 -35t137.5 -105t92.5 -182.5t33 -259.5q0 -161 -34 -290t-93.5 -220t-149.5 -159t-193.5 -108.5t-232.5 -65.5l-16 67q143 31 247.5 77.5t186.5 119.5t129.5 179t63.5 249q-62 -60 -148.5 -102t-185.5 -42q-79 0 -152 27.5 t-132 80t-94.5 136.5t-35.5 189zM215 881q0 -179 94.5 -274t247.5 -95q168 0 328 145q2 27 2 84q0 255 -93.5 383.5t-258.5 128.5q-149 0 -234.5 -97.5t-85.5 -274.5z" />
<glyph unicode=":" horiz-adv-x="458" d="M150 68q0 33 23 56t56 23t56.5 -23t23.5 -56t-23.5 -56.5t-56.5 -23.5t-56 23t-23 57zM150 621q0 33 23 56t56 23t56.5 -23t23.5 -56t-23.5 -56.5t-56.5 -23.5t-56 23.5t-23 56.5z" />
<glyph unicode=";" horiz-adv-x="458" d="M143 -135q39 18 65.5 51.5t27.5 71.5q-38 0 -62 23t-24 57q0 33 23 56t56 23q35 0 59.5 -28t24.5 -82q0 -80 -36.5 -137.5t-112.5 -79.5zM150 621q0 33 23 56t56 23t56.5 -23t23.5 -56t-23.5 -56.5t-56.5 -23.5t-56 23.5t-23 56.5z" />
<glyph unicode="&#x3c;" horiz-adv-x="634" d="M104 575v19l390 397l47 -49l-348 -358l348 -357l-47 -49z" />
<glyph unicode="=" horiz-adv-x="1062" d="M152 397v68h757v-68h-757zM152 705v67h757v-67h-757z" />
<glyph unicode="&#x3e;" horiz-adv-x="634" d="M94 227l348 359l-348 356l47 49l389 -397v-19l-389 -397z" />
<glyph unicode="?" horiz-adv-x="841" d="M98 1321q58 42 139.5 69t161.5 27q142 0 224 -72.5t82 -230.5q0 -67 -14.5 -120.5t-43.5 -94t-52 -63t-60 -52.5q-45 -36 -66 -56t-39 -50t-23.5 -64t-5.5 -88v-184h-77v188q0 63 10.5 110t33 80t41.5 51.5t54 46.5q3 2 5 3.5t4.5 3.5t4.5 4q34 27 53 46t44 53.5t37 79.5 t12 102q0 129 -52 184.5t-170 55.5q-65 0 -141 -24.5t-131 -59.5zM285 68q0 34 24 58t56 24t55.5 -24t23.5 -58t-23 -57t-56 -23t-56.5 23.5t-23.5 56.5z" />
<glyph unicode="@" horiz-adv-x="1581" d="M127 432q0 131 26 250t81 222.5t135 179.5t195 119.5t253 43.5q142 0 253 -39t182 -105t117.5 -159.5t65.5 -195.5t19 -220q0 -542 -315 -542q-94 0 -149.5 51t-61.5 141q-61 -72 -137 -120t-158 -48q-45 0 -81 14t-65 49.5t-43 91t-10 143.5t29 202q52 229 139 329.5 t225 100.5q119 0 224 -109l18 84h80l-131 -612q-28 -128 1.5 -191t123.5 -63q124 0 178.5 118t54.5 361q0 656 -557 656q-125 0 -228.5 -41t-174 -112t-119 -167.5t-70.5 -204.5t-22 -227q0 -126 13.5 -223t48 -182t91 -139.5t144.5 -85.5t207 -31q152 0 284 41l19 -58 q-153 -47 -301 -47q-162 0 -276.5 50t-181 147t-96.5 226t-30 302zM513.5 283.5q-4.5 -86.5 13 -130t44.5 -60.5t68 -17q127 0 287 174l112 520q-104 104 -209 104q-106 0 -173 -84t-111 -292q-27 -128 -31.5 -214.5z" />
<glyph unicode="A" horiz-adv-x="1097" d="M66 0l444 1403h86l434 -1403h-84l-149 487h-496l-154 -487h-81zM324 557h450l-162 528q-37 115 -57 246h-2q-15 -93 -64 -246z" />
<glyph unicode="B" horiz-adv-x="1093" d="M201 0v1403h344q101 0 174.5 -28.5t114.5 -81t60 -116t19 -141.5q0 -235 -182 -295q114 -26 181 -117.5t67 -244.5q0 -193 -112.5 -286t-311.5 -93h-354zM281 768h274q149 0 212.5 67t63.5 205q0 142 -65 218.5t-215 76.5h-270v-567zM283 68h274q178 0 258 80t80 237 q0 162 -78.5 238.5t-257.5 76.5h-276v-632z" />
<glyph unicode="C" horiz-adv-x="1081" d="M143 694q0 723 492 723q184 0 328 -108l-41 -58q-125 97 -287 97q-220 0 -314 -160.5t-94 -489.5q0 -166 20.5 -282t69 -199t130.5 -122.5t202 -39.5q158 0 297 109l41 -58q-63 -55 -150.5 -87.5t-187.5 -32.5q-269 0 -387.5 176t-118.5 532z" />
<glyph unicode="D" horiz-adv-x="1179" d="M201 0v1403h284q156 0 261 -40.5t169.5 -131t92.5 -225t28 -332.5q0 -362 -126 -518t-421 -156h-288zM283 68h215q106 0 183 23.5t129.5 69t83.5 120.5t44.5 171t13.5 228q0 180 -20.5 298t-72.5 201t-140 119.5t-223 36.5h-213v-1267z" />
<glyph unicode="E" horiz-adv-x="1001" d="M201 0v1403h673v-68h-591v-561h483v-67h-483v-639h614v-68h-696z" />
<glyph unicode="F" horiz-adv-x="983" d="M201 0v1403h669v-68h-587v-561h491v-67h-491v-707h-82z" />
<glyph unicode="G" horiz-adv-x="1185" d="M143 694q0 130 16.5 237.5t53 199t92.5 154t138.5 97.5t187.5 35q204 0 334 -114l-45 -58q-124 103 -291 103q-111 0 -190 -46.5t-125 -135.5t-66.5 -204.5t-20.5 -267.5q0 -322 94 -481.5t306 -159.5q183 0 305 115v479h-332v68h414v-715h-49l-23 106 q-130 -120 -309 -120q-255 0 -372.5 175t-117.5 533z" />
<glyph unicode="H" horiz-adv-x="1214" d="M201 0v1403h82v-619h649v619h82v-1403h-82v717h-649v-717h-82z" />
<glyph unicode="I" horiz-adv-x="618" d="M121 0v49l147 10v1284l-147 11v49h377v-49l-148 -11v-1284l148 -10v-49h-377z" />
<glyph unicode="J" horiz-adv-x="483" d="M-4 -201q88 47 128 84t58.5 95t18.5 161v1264h82v-1227q0 -82 -6 -135t-21 -99.5t-45 -79t-74 -61.5t-112 -59z" />
<glyph unicode="K" horiz-adv-x="1048" d="M201 0v1403h82v-1403h-82zM342 752l514 651h94l-516 -649l527 -754h-97z" />
<glyph unicode="L" horiz-adv-x="944" d="M201 0v1403h82v-1335h555v-68h-637z" />
<glyph unicode="M" horiz-adv-x="1398" d="M201 0v1403h127l309 -848q54 -144 65 -211h3q1 4 4 25t5 30.5t8 32.5t16.5 52.5t25.5 70.5l311 848h123v-1403h-80v1047q0 145 4 301h-2q-27 -113 -88 -277l-291 -790h-84l-290 790q-11 31 -27 75q-29 80 -58 180q-4 14 -6 22h-2q1 -71 4 -160t3 -141v-1047h-80z" />
<glyph unicode="N" horiz-adv-x="1214" d="M201 0v1403h108l520 -1065q76 -154 115 -266h2q-10 118 -10 290v1041h78v-1403h-101l-516 1047q-73 147 -127 303h-2q11 -124 11 -349v-1001h-78z" />
<glyph unicode="O" horiz-adv-x="1245" d="M143 694q0 349 122.5 536t357.5 187q236 0 357.5 -185.5t121.5 -531.5q0 -359 -113 -536.5t-362 -177.5t-366.5 178.5t-117.5 529.5zM227 698q0 -328 94 -486.5t304 -158.5q209 0 301 157t92 480q0 328 -97 494t-298 166q-396 0 -396 -652z" />
<glyph unicode="P" horiz-adv-x="1038" d="M201 0v1403h303q207 0 309 -99.5t102 -291.5q0 -202 -102 -306t-287 -104h-243v-602h-82zM283 670h235q158 0 233.5 82t75.5 258q0 170 -77 247.5t-254 77.5h-213v-665z" />
<glyph unicode="Q" horiz-adv-x="1253" d="M143 694q0 349 122.5 536t357.5 187q236 0 357.5 -185.5t121.5 -531.5q0 -349 -103 -519.5t-337 -182.5l440 -139l-27 -74l-594 215q-79 29 -137.5 75.5t-105.5 125.5t-71 202.5t-24 290.5zM227 698q0 -328 94 -486.5t304 -158.5q209 0 301 157t92 480q0 328 -97 494 t-298 166q-396 0 -396 -652z" />
<glyph unicode="R" horiz-adv-x="1128" d="M201 0v1403h329q83 0 152.5 -21t124.5 -64t86 -115.5t31 -168.5q0 -323 -260 -377q56 -21 96 -64t76 -136l174 -457h-84l-168 430q-47 122 -106.5 164.5t-180.5 42.5h-188v-637h-82zM283 705h249q167 0 237.5 80.5t70.5 244.5q0 151 -76 228t-246 77h-235v-630z" />
<glyph unicode="S" horiz-adv-x="1021" d="M63 166l52 55q147 -168 362 -168q162 0 240 77.5t78 221.5q0 61 -13.5 108t-35.5 80t-64 63.5t-84 52t-111 51.5q-48 21 -78 35t-69.5 36.5t-63 42t-50 48t-40.5 60t-23 72.5t-9 89q0 152 98 239.5t254 87.5q103 0 176 -23t141 -69l-39 -61q-120 86 -278 86 q-117 0 -195 -67t-78 -191q0 -54 13 -96t32.5 -71t59.5 -56.5t76 -46t100 -46.5q79 -34 128.5 -60t99 -63t76 -77t43 -96.5t16.5 -127.5q0 -164 -100 -265t-298 -101q-129 0 -236 49.5t-180 130.5z" />
<glyph unicode="T" horiz-adv-x="1009" d="M109 1335v68h790v-68h-354v-1335h-82v1335h-354z" />
<glyph unicode="U" horiz-adv-x="1202" d="M193 391v1012h81v-1000q0 -187 67.5 -267.5t203.5 -80.5q120 0 215.5 47t159.5 111v1190h81v-1403h-51l-28 143q-165 -157 -375 -157q-169 0 -261.5 98t-92.5 307z" />
<glyph unicode="V" horiz-adv-x="1077" d="M66 1403h84l323 -1071q38 -124 59 -256h3q18 112 63 256l332 1071h82l-434 -1403h-89z" />
<glyph unicode="W" horiz-adv-x="1603" d="M74 1403h84l235 -1088q33 -147 49 -252h2q25 145 52 252l268 1088h96l256 -1088q35 -149 49 -252h2q12 95 47 252l236 1088h80l-305 -1403h-115l-252 1085q-37 170 -47 234h-2q-10 -82 -47 -234l-264 -1085h-115z" />
<glyph unicode="X" horiz-adv-x="1064" d="M53 0l432 770l-352 633h86q316 -565 316 -567l313 567h84l-348 -627l428 -776h-86l-391 713l-398 -713h-84z" />
<glyph unicode="Y" horiz-adv-x="1101" d="M90 1403h86l297 -623q56 -120 72 -172q32 90 69 172l291 623h84l-405 -862v-541h-82v543z" />
<glyph unicode="Z" horiz-adv-x="954" d="M94 0v66l678 1269h-647v68h731v-70l-676 -1265h672v-68h-758z" />
<glyph unicode="[" horiz-adv-x="602" d="M195 -315v1818h311v-67h-230v-1684h230v-67h-311z" />
<glyph unicode="\" horiz-adv-x="686" d="M41 1550h78l526 -1845h-78z" />
<glyph unicode="]" horiz-adv-x="602" d="M96 -248h230v1684h-230v67h312v-1818h-312v67z" />
<glyph unicode="^" horiz-adv-x="899" d="M129 940l291 510h63l293 -510h-82l-243 432l-242 -432h-80z" />
<glyph unicode="_" horiz-adv-x="555" d="M-2 -178h559v-68h-559v68z" />
<glyph unicode="`" horiz-adv-x="921" d="M272 1264l45 63l299 -215l-32 -43z" />
<glyph unicode="a" d="M123 258q0 150 94.5 222.5t296.5 72.5h160v137q0 100 -39.5 149.5t-134.5 49.5q-139 0 -289 -103l-33 54q76 55 151.5 84.5t172.5 29.5q250 0 250 -258v-696h-45l-31 135q-42 -59 -115 -104t-168 -45q-127 0 -198.5 72t-71.5 200zM203 256q0 -201 196 -201q165 0 275 150 v282h-154q-175 0 -246 -53t-71 -178z" />
<glyph unicode="b" horiz-adv-x="999" d="M184 0v1450h78v-647q56 62 132.5 106.5t160.5 44.5q150 0 233.5 -122t83.5 -367q0 -240 -85 -359.5t-242 -119.5q-161 0 -287 145l-29 -131h-45zM262 193q135 -138 279 -138q252 0 252 400q0 121 -16.5 205.5t-49 133t-76.5 70t-104 21.5q-43 0 -83 -12t-80.5 -39 t-61 -43.5t-60.5 -51.5v-546z" />
<glyph unicode="c" horiz-adv-x="856" d="M127 467q0 129 27.5 225t77.5 152t113.5 83t141.5 27q87 0 148.5 -28.5t112.5 -81.5l-50 -51q-45 49 -93.5 72.5t-121.5 23.5q-276 0 -276 -416q0 -226 70 -324t212 -98q139 0 224 103l55 -43q-108 -125 -281 -125q-60 0 -111.5 14.5t-98.5 49.5t-79.5 89t-51.5 137.5 t-19 190.5z" />
<glyph unicode="d" horiz-adv-x="999" d="M127 475q0 240 85.5 359.5t242.5 119.5q156 0 282 -141v637h78v-1450h-45l-29 141q-143 -155 -297 -155q-150 0 -233.5 122t-83.5 367zM207 485q0 -121 16.5 -205.5t49 -133t76.5 -70t104 -21.5q43 0 82.5 12t80.5 39.5t61 43.5t60 51v547q-66 67 -132.5 102t-145.5 35 q-252 0 -252 -400z" />
<glyph unicode="e" d="M127 467q0 130 27 226t75.5 152t111 82.5t138.5 26.5q324 0 324 -450v-33h-596q0 -226 71.5 -323t223.5 -97q138 0 243 84l46 -55q-128 -94 -285 -94q-379 0 -379 481zM209 535h514q0 189 -61.5 271.5t-182.5 82.5q-123 0 -192 -82.5t-78 -271.5z" />
<glyph unicode="f" horiz-adv-x="579" d="M88 877v63h119v307q0 102 56.5 160.5t139.5 58.5q107 0 177 -49l-35 -55q-67 39 -137 39q-57 0 -90 -40t-33 -120v-301h204v-63h-204v-877h-78v877h-119z" />
<glyph unicode="g" horiz-adv-x="886" d="M82 -166q0 81 39.5 138.5t107.5 105.5q-41 14 -64.5 46.5t-23.5 78.5q0 61 31.5 108.5t85.5 94.5q-127 80 -127 247q0 142 87 221.5t226 79.5q64 0 107 -14h274v-49l-159 -14q84 -81 84 -218q0 -141 -86.5 -222t-221.5 -81q-76 0 -137 27q-86 -86 -86 -170 q0 -36 20.5 -55t71.5 -19h215q143 0 221 -68t78 -192q0 -145 -104.5 -228t-288.5 -83q-166 0 -258 74.5t-92 191.5zM162 -166q0 -92 64.5 -147.5t203.5 -55.5q154 0 234.5 63.5t80.5 184.5q0 89 -50.5 139t-153.5 50h-248q-65 -50 -98 -103t-33 -131zM209 651 q0 -121 63.5 -177t167.5 -56q105 0 168.5 61t63.5 183q0 125 -59 178t-171 53q-105 0 -169 -59t-64 -183z" />
<glyph unicode="h" horiz-adv-x="993" d="M184 0v1450h78v-659q85 80 160 121.5t160 41.5q106 0 171.5 -65t65.5 -187v-702h-78v688q0 197 -166 197q-78 0 -151.5 -40t-161.5 -116v-729h-78z" />
<glyph unicode="i" horiz-adv-x="518" d="M117 891v49h207v-940h-78v877zM197 1264q0 31 18 50t49 19t50.5 -19t19.5 -50t-18.5 -50.5t-49.5 -19.5t-50 19.5t-19 50.5z" />
<glyph unicode="j" horiz-adv-x="518" d="M96 -377q44 24 67.5 42t45 46.5t29.5 68.5t8 99v998l-129 14v49h207v-1061q0 -61 -10 -106.5t-24.5 -75.5t-43 -54t-54.5 -38t-69 -33zM197 1264q0 31 18 50t49 19t50.5 -19t19.5 -50t-18.5 -50.5t-49.5 -19.5t-50 19.5t-19 50.5z" />
<glyph unicode="k" horiz-adv-x="874" d="M184 0v1450h78v-1450h-78zM315 526l365 414h94l-364 -414l413 -526h-94z" />
<glyph unicode="l" horiz-adv-x="477" d="M184 133v1317h78v-1313q0 -50 17.5 -69t52.5 -19q12 0 23 2t17 4l5 2l16 -55q-37 -16 -71 -16q-59 0 -98.5 34t-39.5 113z" />
<glyph unicode="m" horiz-adv-x="1486" d="M184 0v940h45l31 -141q80 75 150.5 115t152.5 40q80 0 135.5 -42t79.5 -111q89 77 159 115t150 38q102 0 163 -63t61 -184v-707h-78v692q0 102 -37.5 147.5t-114.5 45.5q-75 0 -145.5 -35.5t-149.5 -104.5v-745h-77v692q0 102 -37.5 147.5t-114.5 45.5q-75 0 -141 -35.5 t-154 -110.5v-739h-78z" />
<glyph unicode="n" horiz-adv-x="993" d="M184 0v940h45l31 -152q83 80 160 123t162 43q106 0 171.5 -65t65.5 -187v-702h-78v688q0 197 -166 197q-78 0 -151.5 -40t-161.5 -116v-729h-78z" />
<glyph unicode="o" horiz-adv-x="985" d="M127 467q0 249 97.5 368t262.5 119q80 0 145.5 -27.5t117 -83.5t80 -151t28.5 -221q0 -247 -98.5 -366t-265.5 -119t-267 117t-100 364zM207 473q0 -222 73 -323t214 -101t212.5 98t71.5 316q0 222 -73 325t-213 103q-141 0 -213 -98.5t-72 -319.5z" />
<glyph unicode="p" horiz-adv-x="999" d="M184 -424v1364h45l29 -141q143 155 297 155q150 0 233.5 -122t83.5 -367q0 -240 -85 -359.5t-242 -119.5t-283 141v-551h-78zM262 193q135 -138 279 -138q252 0 252 400q0 121 -16.5 205.5t-49 133t-76.5 70t-104 21.5q-43 0 -83 -12t-80.5 -39t-61 -43.5t-60.5 -51.5 v-546z" />
<glyph unicode="q" horiz-adv-x="999" d="M127 475q0 240 85.5 359.5t242.5 119.5q160 0 286 -145l29 131h45v-1364h-78v561q-56 -62 -132.5 -106.5t-160.5 -44.5q-150 0 -233.5 122t-83.5 367zM207 485q0 -121 16.5 -205.5t49 -133t76.5 -70t104 -21.5q43 0 82.5 12t80.5 39.5t61 43.5t60 51v547 q-66 67 -132.5 102t-145.5 35q-252 0 -252 -400z" />
<glyph unicode="r" horiz-adv-x="651" d="M184 0v940h45l29 -182q155 192 301 192l29 -2l-6 -82q-13 2 -29 2q-77 0 -145.5 -44t-145.5 -134v-690h-78z" />
<glyph unicode="s" horiz-adv-x="798" d="M82 88l39 53q120 -90 256 -90q110 0 165.5 50t55.5 139t-46.5 135.5t-176.5 89.5q-124 41 -186 99t-62 167q0 99 69 161t193 62q142 0 252 -67l-31 -60q-53 31 -103 46.5t-120 15.5q-85 0 -134.5 -40t-49.5 -116q0 -82 40 -120t148 -78q49 -18 80 -31t68 -32t58.5 -39.5 t41.5 -48t28.5 -63t8.5 -79.5q0 -124 -81.5 -190t-217.5 -66q-171 0 -295 102z" />
<glyph unicode="t" horiz-adv-x="602" d="M88 877v63h121v254l76 20v-274h198v-63h-198v-738q0 -42 20.5 -65t59.5 -23q56 0 116 29l27 -55q-68 -39 -143 -39q-71 0 -113.5 38t-42.5 117v736h-121z" />
<glyph unicode="u" horiz-adv-x="993" d="M174 238v702h78v-688q0 -197 166 -197q79 0 153 35.5t160 102.5v747h78v-940h-45l-31 133q-168 -147 -321 -147q-106 0 -172 65t-66 187z" />
<glyph unicode="v" horiz-adv-x="882" d="M86 940h82l211 -643q51 -154 63 -244h2q15 90 66 244l207 643h80l-312 -940h-88z" />
<glyph unicode="w" horiz-adv-x="1345" d="M96 940h82l172 -682q29 -121 41 -186h2q32 145 43 186l195 682h96l191 -682q20 -76 40 -186h3q19 102 40 186l173 682h79l-249 -940h-93l-200 727q-16 56 -31 150h-2q-12 -77 -33 -150l-211 -727h-88z" />
<glyph unicode="x" horiz-adv-x="860" d="M82 0l307 506l-260 434h84l137 -231q59 -98 82 -146h2q47 96 78 146l139 231h82l-262 -430l307 -510h-84l-168 283q-74 124 -96 174h-2q-28 -62 -94 -174l-170 -283h-82z" />
<glyph unicode="y" horiz-adv-x="882" d="M86 940h82l205 -643q44 -140 71 -256h2q6 29 16.5 64.5t29 93t30.5 98.5l195 643h80l-310 -991q-39 -124 -84 -195.5t-102.5 -110t-157.5 -71.5l-22 57q135 49 198.5 125.5t110.5 245.5h-43z" />
<glyph unicode="z" horiz-adv-x="843" d="M117 0v74l528 803h-487v63h569v-74l-528 -803h544v-63h-626z" />
<glyph unicode="{" horiz-adv-x="745" d="M90 563v68q106 0 153.5 45t47.5 143v484q0 98 58.5 149t160.5 51h139v-67h-145q-131 0 -131 -142v-469q0 -109 -35 -156t-102 -67v-4q42 -13 70 -34.5t47.5 -70t19.5 -122.5v-477q0 -142 131 -142h145v-67h-139q-102 0 -160.5 51t-58.5 149v492q0 99 -46.5 142.5 t-154.5 43.5z" />
<glyph unicode="|" horiz-adv-x="448" d="M184 -295v1845h80v-1845h-80z" />
<glyph unicode="}" horiz-adv-x="745" d="M96 -248h146q131 0 131 142v477q0 74 19.5 122.5t47.5 70t70 34.5v4q-67 20 -102 67t-35 156v469q0 142 -131 142h-146v67h140q102 0 160.5 -51t58.5 -149v-484q0 -99 47.5 -143.5t152.5 -44.5v-68q-108 0 -154 -43.5t-46 -142.5v-492q0 -98 -58.5 -149t-160.5 -51h-140 v67z" />
<glyph unicode="~" horiz-adv-x="942" d="M139 604q42 86 86 124t105 38q40 0 82.5 -18.5t73 -40t66.5 -40t64 -18.5q43 0 70.5 29t63.5 92l53 -27q-42 -86 -86 -123.5t-105 -37.5q-50 0 -103.5 29t-100.5 58t-82 29q-43 0 -70 -28.5t-63 -91.5z" />
<glyph unicode="&#xa1;" horiz-adv-x="466" d="M152 872q0 34 23.5 58t57.5 24t58 -24t24 -58q0 -35 -24 -59.5t-58 -24.5t-57.5 24.5t-23.5 59.5zM190 -424l11 1024h65l10 -1024h-86z" />
<glyph unicode="&#xa2;" horiz-adv-x="858" d="M127 467q0 233 86 352t229 133v217h70v-215q137 -7 236 -110l-50 -51q-40 43 -82.5 66.5t-103.5 27.5v-836q73 5 120 34t85 73l55 -43q-104 -119 -260 -129v-195h-70v197q-68 7 -122.5 35.5t-99 83t-69 146t-24.5 214.5zM207 473q0 -207 59 -306.5t176 -113.5v834 q-235 -30 -235 -414z" />
<glyph unicode="&#xa3;" horiz-adv-x="1017" d="M111 612v68h163q-55 152 -55 272q0 177 100 270t254 93q102 0 178 -28.5t156 -90.5l-39 -53q-80 58 -142 81t-155 23q-125 0 -196.5 -75t-71.5 -218q0 -120 57 -274h388v-68h-365q47 -139 47 -241q0 -90 -40 -170t-122 -133h637v-68h-735v72q90 53 135 124t45 175 q0 111 -51 241h-188z" />
<glyph unicode="&#xa4;" horiz-adv-x="995" d="M74 158l155 186q-67 103 -67 266t65 271l-153 186l53 47l145 -176q86 86 224 86q136 0 227 -88l147 178l52 -47l-154 -186q68 -104 68 -267q0 -162 -68 -270l154 -186l-54 -47l-147 176q-87 -84 -221 -84q-139 0 -228 86l-147 -178zM242 616q0 -348 258 -348 q256 0 256 338q0 174 -66.5 263t-191.5 89q-256 0 -256 -342z" />
<glyph unicode="&#xa5;" horiz-adv-x="1118" d="M125 350v68h393v100l-63 129h-330v68h295q1 0 -71.5 146t-144.5 293l-73 146h88l270 -563q51 -108 72 -174q34 97 70 174l268 563h86q-287 -585 -289 -585h297v-68h-327l-66 -131v-98h393v-68h-393v-350h-82v350h-393z" />
<glyph unicode="&#xa6;" horiz-adv-x="448" d="M184 -295v834h80v-834h-80zM184 713v837h80v-837h-80z" />
<glyph unicode="&#xa7;" horiz-adv-x="1101" d="M145 551q0 219 236 287q-63 40 -88 93.5t-25 135.5q0 108 82 178t219 70q153 0 285 -94l-37 -58q-119 84 -248 84q-113 0 -167 -47.5t-54 -130.5q0 -105 50.5 -154.5t215.5 -103.5q87 -28 142.5 -54t104.5 -65.5t72 -94t23 -128.5q0 -219 -243 -281q137 -86 137 -235 q0 -123 -79 -191.5t-220 -68.5q-106 0 -194 37t-142 90l45 53q130 -113 291 -113q112 0 164.5 47t52.5 146q0 98 -58.5 152t-222.5 108q-85 28 -142.5 56.5t-105.5 67.5t-71 92t-23 122zM225 547q0 -106 62 -161t215 -105q63 -20 133 -52q242 43 242 244q0 49 -12 86.5 t-31.5 63t-56.5 48t-76 37.5t-101 35q-61 20 -139 52q-236 -40 -236 -248z" />
<glyph unicode="&#xa8;" horiz-adv-x="1107" d="M336 1174q0 31 17 49t48 18t49.5 -18t18.5 -49t-17.5 -49.5t-48.5 -18.5t-49 18.5t-18 49.5zM639 1174q0 31 17.5 49t48.5 18t49 -18t18 -49t-17.5 -49.5t-47.5 -18.5q-31 0 -49.5 18.5t-18.5 49.5z" />
<glyph unicode="&#xa9;" horiz-adv-x="1411" d="M129 700q0 327 157 522t421 195q262 0 418.5 -195t156.5 -522q0 -329 -156 -521.5t-419 -192.5q-265 0 -421.5 192.5t-156.5 521.5zM205 700q0 -305 131.5 -479t372.5 -174q240 0 368.5 173.5t128.5 479.5q0 307 -128.5 481.5t-368.5 174.5t-372 -175t-132 -481zM395 698 q0 455 320 455q119 0 207 -68l-39 -55q-73 57 -168 57q-131 0 -184.5 -93t-53.5 -292q0 -201 53.5 -292t190.5 -91q90 0 176 66l37 -55q-90 -76 -213 -76q-170 0 -248 111t-78 333z" />
<glyph unicode="&#xaa;" horiz-adv-x="860" d="M111 666q0 140 88.5 207t279.5 67h142v123q0 90 -36.5 135t-123.5 45q-130 0 -266 -92l-33 55q75 51 143.5 78t157.5 27q235 0 235 -240v-645h-49l-26 123q-41 -54 -106.5 -94.5t-151.5 -40.5q-119 0 -186.5 66.5t-67.5 185.5zM195 664q0 -183 176 -183q150 0 250 135 v261h-138q-161 0 -224.5 -48.5t-63.5 -164.5z" />
<glyph unicode="&#xab;" horiz-adv-x="870" d="M117 500l260 397l59 -41l-233 -356l233 -353l-59 -41zM424 500l260 397l59 -41l-233 -356l233 -353l-59 -41z" />
<glyph unicode="&#xac;" horiz-adv-x="897" d="M152 625v67h579v-354h-78v287h-501z" />
<glyph unicode="&#xad;" horiz-adv-x="581" d="M119 510v72h344v-72h-344z" />
<glyph unicode="&#xae;" horiz-adv-x="1095" d="M137 946q0 232 112.5 359t297.5 127t297 -127t112 -359q0 -235 -111.5 -361t-297.5 -126t-298 126t-112 361zM207 946q0 -211 88 -318.5t252 -107.5q162 0 251 108t89 318t-88.5 317t-251.5 107q-164 0 -252 -106.5t-88 -317.5zM393 670v565h156q79 0 125.5 -39.5 t46.5 -116.5q0 -121 -109 -151q45 -16 72 -92l59 -166h-75l-58 161q-18 49 -37.5 65.5t-52.5 16.5h-57v-243h-70zM463 971h82q57 0 79.5 25t22.5 81q0 53 -22.5 76t-79.5 23h-82v-205z" />
<glyph unicode="&#xaf;" horiz-adv-x="1107" d="M342 1169v64h424v-64h-424z" />
<glyph unicode="&#xb0;" horiz-adv-x="729" d="M90 1096q0 147 80 234t195 87q114 0 194 -85.5t80 -229.5t-79.5 -231t-194.5 -87q-116 0 -195.5 83.5t-79.5 228.5zM168 1100q0 -130 54 -192t143 -62q90 0 141 61.5t51 192.5q0 130 -52 192t-140 62q-90 0 -143.5 -62t-53.5 -192z" />
<glyph unicode="&#xb1;" horiz-adv-x="1032" d="M150 61v68h733v-68h-733zM150 567v68h327v344h78v-344h328v-68h-328v-301h-78v301h-327z" />
<glyph unicode="&#xb2;" horiz-adv-x="714" d="M98 446v72q169 146 258.5 246.5t117.5 164.5t28 136q0 92 -44 137t-126 45q-56 0 -99.5 -14.5t-99.5 -46.5l-31 59q115 70 232 70q110 0 180 -65t70 -185q0 -81 -33 -155t-120 -171.5t-243 -226.5h412v-66h-502z" />
<glyph unicode="&#xb3;" horiz-adv-x="761" d="M100 414l25 57q107 -47 217 -47q223 0 223 209q0 205 -219 205h-74v65h68q95 0 143.5 46.5t48.5 129.5q0 80 -44 125t-130 45q-93 0 -202 -59l-29 55q62 36 115.5 53t124.5 17q116 0 181.5 -63.5t65.5 -161.5q0 -162 -145 -213q83 -20 131.5 -80t48.5 -164 q0 -129 -79 -202t-224 -73q-132 0 -246 56z" />
<glyph unicode="&#xb4;" horiz-adv-x="921" d="M305 1112l299 215l45 -63l-311 -195z" />
<glyph unicode="&#xb6;" horiz-adv-x="980" d="M123 1094q0 146 73.5 227.5t215.5 81.5h368v-1581h-82v1513h-161v-1513h-82v964h-27q-138 0 -221.5 83.5t-83.5 224.5z" />
<glyph unicode="&#xb7;" horiz-adv-x="434" d="M137 700q0 33 23.5 56.5t56.5 23.5t56.5 -23.5t23.5 -56.5t-23.5 -56t-56.5 -23t-56.5 23t-23.5 56z" />
<glyph unicode="&#xb8;" horiz-adv-x="1107" d="M422 -348l37 47q31 -22 52.5 -31.5t53.5 -9.5q86 0 86 86q0 42 -23 65t-63 23q-37 0 -73 -8l75 176h70l-51 -111q61 -1 98 -40.5t37 -102.5q0 -70 -41 -109.5t-117 -39.5q-79 0 -141 55z" />
<glyph unicode="&#xb9;" horiz-adv-x="657" d="M115 1165l215 154h63v-803h168v-63h-430v63h180v698l-170 -94z" />
<glyph unicode="&#xba;" horiz-adv-x="860" d="M115 860q0 231 91.5 341t246.5 110t249.5 -110t94.5 -339t-91.5 -338.5t-248.5 -109.5t-249.5 107.5t-92.5 338.5zM199 864q0 -206 64.5 -297.5t193.5 -91.5t193.5 90t64.5 291q0 204 -66 297.5t-194 93.5q-129 0 -192.5 -89t-63.5 -294z" />
<glyph unicode="&#xbb;" horiz-adv-x="870" d="M127 147l233 357l-233 352l59 41l260 -393l-260 -398zM434 147l234 357l-234 352l60 41l260 -393l-260 -398z" />
<glyph unicode="&#xbc;" horiz-adv-x="1886" d="M115 1165l215 154h63v-803h168v-63h-430v63h180v698l-170 -94zM510 0l774 1300h84l-774 -1300h-84zM1135 141v74l290 641h86l-297 -647h375v387l82 16v-403h107v-68h-107v-217h-82v217h-454z" />
<glyph unicode="&#xbd;" horiz-adv-x="1894" d="M115 1165l215 154h63v-803h168v-63h-430v63h180v698l-170 -94zM508 0l774 1300h84l-774 -1300h-84zM1253 0v72q128 111 208.5 192t123.5 144t57.5 109.5t14.5 100.5q0 92 -44.5 137.5t-125.5 45.5q-56 0 -99 -14.5t-100 -47.5l-31 60q113 69 232 69q110 0 180 -65 t70 -185t-84 -241t-312 -311h412v-66h-502z" />
<glyph unicode="&#xbe;" horiz-adv-x="1951" d="M100 414l25 57q107 -47 217 -47q223 0 223 209q0 205 -219 205h-74v65h68q95 0 143.5 46.5t48.5 129.5q0 80 -44 125t-130 45q-93 0 -202 -59l-29 55q62 36 115.5 53t124.5 17q116 0 181.5 -63.5t65.5 -161.5q0 -162 -145 -213q83 -20 131.5 -80t48.5 -164 q0 -129 -79 -202t-224 -73q-132 0 -246 56zM596 0l774 1300h84l-774 -1300h-84zM1200 141v74l291 641h86l-297 -647h375v387l82 16v-403h106v-68h-106v-217h-82v217h-455z" />
<glyph unicode="&#xbf;" horiz-adv-x="841" d="M137 -133q0 67 14.5 120.5t43.5 94t52 63t60 52.5q58 47 82.5 74.5t37.5 70t13 113.5v145h78v-149q0 -63 -10.5 -110t-33 -80t-41.5 -51.5t-54 -46.5q-3 -2 -5 -3.5t-4.5 -3.5t-4.5 -4q-34 -27 -53 -46t-44 -53.5t-37 -79.5t-12 -102q0 -130 51.5 -185t169.5 -55 q65 0 141.5 24.5t131.5 59.5l30 -55q-58 -42 -139.5 -69t-161.5 -27q-142 0 -223.5 72.5t-81.5 230.5zM397 874q0 33 23.5 56.5t56.5 23.5t56.5 -23.5t23.5 -56.5q0 -34 -23.5 -57.5t-56.5 -23.5t-56.5 23.5t-23.5 57.5z" />
<glyph unicode="&#xc0;" horiz-adv-x="1097" d="M66 0l444 1403h86l434 -1403h-84l-149 487h-496l-154 -487h-81zM324 557h450l-162 528q-37 115 -57 246h-2q-15 -93 -64 -246zM360 1696l46 63l299 -215l-33 -43z" />
<glyph unicode="&#xc1;" horiz-adv-x="1097" d="M66 0l444 1403h86l434 -1403h-84l-149 487h-496l-154 -487h-81zM324 557h450l-162 528q-37 115 -57 246h-2q-15 -93 -64 -246zM393 1544l299 215l45 -63l-311 -195z" />
<glyph unicode="&#xc2;" horiz-adv-x="1097" d="M66 0l444 1403h86l434 -1403h-84l-149 487h-496l-154 -487h-81zM317 1542l211 225h45l215 -225l-36 -37l-201 185l-197 -185zM324 557h450l-162 528q-37 115 -57 246h-2q-15 -93 -64 -246z" />
<glyph unicode="&#xc3;" horiz-adv-x="1097" d="M66 0l444 1403h86l434 -1403h-84l-149 487h-496l-154 -487h-81zM295 1559q53 127 149 127q41 0 112 -37t101 -37q18 0 32 5.5t25.5 19.5t18 24.5t17.5 32.5l55 -25q-52 -127 -150 -127q-41 0 -112 37t-101 37q-18 0 -32 -5.5t-25.5 -19.5t-17 -24t-17.5 -33zM324 557h450 l-162 528q-37 115 -57 246h-2q-15 -93 -64 -246z" />
<glyph unicode="&#xc4;" horiz-adv-x="1097" d="M66 0l444 1403h86l434 -1403h-84l-149 487h-496l-154 -487h-81zM324 557h450l-162 528q-37 115 -57 246h-2q-15 -93 -64 -246zM332 1606q0 31 17 49t48 18t49.5 -18t18.5 -49t-17.5 -49.5t-48.5 -18.5t-49 18.5t-18 49.5zM635 1606q0 31 17 49t48 18t49.5 -18t18.5 -49 t-17.5 -49.5t-48.5 -18.5t-49 18.5t-18 49.5z" />
<glyph unicode="&#xc5;" horiz-adv-x="1097" d="M66 0l444 1403h86l434 -1403h-84l-149 487h-496l-154 -487h-81zM324 557h450l-162 528q-37 115 -57 246h-2q-15 -93 -64 -246zM391 1679q0 68 44 120t116 52q71 0 114.5 -51.5t43.5 -120.5q0 -67 -43.5 -118.5t-114.5 -51.5q-72 0 -116 51.5t-44 118.5zM457 1679 q0 -56 26 -85t68 -29q39 0 65.5 29t26.5 85q0 57 -26.5 87t-65.5 30q-42 0 -68 -29.5t-26 -87.5z" />
<glyph unicode="&#xc6;" horiz-adv-x="1755" d="M70 0l794 1403h717v-68h-592v-561h484v-67h-484v-639h615v-68h-697v487h-473l-276 -487h-88zM473 557h434v475l4 318h-2q-63 -135 -155 -297z" />
<glyph unicode="&#xc7;" horiz-adv-x="1081" d="M143 694q0 723 492 723q184 0 328 -108l-41 -58q-125 97 -287 97q-220 0 -314 -160.5t-94 -489.5q0 -166 20.5 -282t69 -199t130.5 -122.5t202 -39.5q158 0 297 109l41 -58q-63 -55 -150.5 -87.5t-187.5 -32.5h-31l-45 -97q61 -1 98.5 -40.5t37.5 -102.5 q0 -70 -41 -109.5t-117 -39.5q-79 0 -141 55l36 47q31 -22 53 -31.5t54 -9.5q86 0 86 86q0 42 -23 65t-63 23q-38 0 -74 -8l72 168q-145 21 -236.5 109.5t-131.5 234t-40 358.5z" />
<glyph unicode="&#xc8;" horiz-adv-x="1001" d="M201 0v1403h673v-68h-591v-561h483v-67h-483v-639h614v-68h-696zM330 1696l45 63l299 -215l-33 -43z" />
<glyph unicode="&#xc9;" horiz-adv-x="1001" d="M201 0v1403h673v-68h-591v-561h483v-67h-483v-639h614v-68h-696zM401 1544l299 215l45 -63l-311 -195z" />
<glyph unicode="&#xca;" horiz-adv-x="1001" d="M201 0v1403h673v-68h-591v-561h483v-67h-483v-639h614v-68h-696zM303 1542l211 225h45l215 -225l-37 -37l-200 185l-197 -185z" />
<glyph unicode="&#xcb;" horiz-adv-x="1001" d="M201 0v1403h673v-68h-591v-561h483v-67h-483v-639h614v-68h-696zM311 1606q0 31 17.5 49t48.5 18t49 -18t18 -49t-17.5 -49.5t-47.5 -18.5q-31 0 -49.5 18.5t-18.5 49.5zM614 1606q0 31 17.5 49t48.5 18t49.5 -18t18.5 -49t-17.5 -49.5t-48.5 -18.5t-49.5 18.5 t-18.5 49.5z" />
<glyph unicode="&#xcc;" horiz-adv-x="618" d="M102 1696l45 63l299 -215l-32 -43zM121 0v49l147 10v1284l-147 11v49h377v-49l-148 -11v-1284l148 -10v-49h-377z" />
<glyph unicode="&#xcd;" horiz-adv-x="618" d="M121 0v49l147 10v1284l-147 11v49h377v-49l-148 -11v-1284l148 -10v-49h-377zM184 1544l299 215l45 -63l-311 -195z" />
<glyph unicode="&#xce;" horiz-adv-x="618" d="M78 1542l211 225h45l215 -225l-37 -37l-201 185l-196 -185zM121 0v49l147 10v1284l-147 11v49h377v-49l-148 -11v-1284l148 -10v-49h-377z" />
<glyph unicode="&#xcf;" horiz-adv-x="618" d="M92 1606q0 31 17.5 49t48.5 18t49 -18t18 -49t-17.5 -49.5t-47.5 -18.5q-31 0 -49.5 18.5t-18.5 49.5zM121 0v49l147 10v1284l-147 11v49h377v-49l-148 -11v-1284l148 -10v-49h-377zM395 1606q0 31 17.5 49t48.5 18t49 -18t18 -49t-17.5 -49.5t-47.5 -18.5 q-31 0 -49.5 18.5t-18.5 49.5z" />
<glyph unicode="&#xd0;" horiz-adv-x="1179" d="M37 666v67h164v670h284q156 0 261 -40.5t169.5 -131t92.5 -225t28 -332.5q0 -362 -126 -518t-421 -156h-288v666h-164zM283 68h215q106 0 183 23.5t129.5 69t83.5 120.5t44.5 171t13.5 228q0 180 -20.5 298t-72.5 201t-140 119.5t-223 36.5h-213v-602h325v-67h-325v-598z " />
<glyph unicode="&#xd1;" horiz-adv-x="1214" d="M201 0v1403h108l520 -1065q76 -154 115 -266h2q-10 118 -10 290v1041h78v-1403h-101l-516 1047q-73 147 -127 303h-2q11 -124 11 -349v-1001h-78zM362 1559q53 127 150 127q41 0 112 -37t101 -37q18 0 32 5.5t25.5 19.5t17 24t17.5 33l55 -25q-52 -127 -149 -127 q-41 0 -112 37t-101 37q-18 0 -32 -5.5t-25.5 -19.5t-17 -24t-17.5 -33z" />
<glyph unicode="&#xd2;" horiz-adv-x="1245" d="M143 694q0 349 122.5 536t357.5 187q236 0 357.5 -185.5t121.5 -531.5q0 -359 -113 -536.5t-362 -177.5t-366.5 178.5t-117.5 529.5zM227 698q0 -328 94 -486.5t304 -158.5q209 0 301 157t92 480q0 328 -97 494t-298 166q-396 0 -396 -652zM434 1696l45 63l299 -215 l-33 -43z" />
<glyph unicode="&#xd3;" horiz-adv-x="1245" d="M143 694q0 349 122.5 536t357.5 187q236 0 357.5 -185.5t121.5 -531.5q0 -359 -113 -536.5t-362 -177.5t-366.5 178.5t-117.5 529.5zM227 698q0 -328 94 -486.5t304 -158.5q209 0 301 157t92 480q0 328 -97 494t-298 166q-396 0 -396 -652zM467 1544l299 215l45 -63 l-311 -195z" />
<glyph unicode="&#xd4;" horiz-adv-x="1245" d="M143 694q0 349 122.5 536t357.5 187q236 0 357.5 -185.5t121.5 -531.5q0 -359 -113 -536.5t-362 -177.5t-366.5 178.5t-117.5 529.5zM227 698q0 -328 94 -486.5t304 -158.5q209 0 301 157t92 480q0 328 -97 494t-298 166q-396 0 -396 -652zM391 1542l211 225h45l215 -225 l-37 -37l-200 185l-197 -185z" />
<glyph unicode="&#xd5;" horiz-adv-x="1245" d="M143 694q0 349 122.5 536t357.5 187q236 0 357.5 -185.5t121.5 -531.5q0 -359 -113 -536.5t-362 -177.5t-366.5 178.5t-117.5 529.5zM227 698q0 -328 94 -486.5t304 -158.5q209 0 301 157t92 480q0 328 -97 494t-298 166q-396 0 -396 -652zM369 1559q53 127 149 127 q41 0 112 -37t101 -37q18 0 32 5.5t25.5 19.5t17 24t17.5 33l56 -25q-52 -127 -150 -127q-41 0 -112 37t-101 37q-18 0 -32 -5.5t-25.5 -19.5t-17 -24t-17.5 -33z" />
<glyph unicode="&#xd6;" horiz-adv-x="1245" d="M143 694q0 349 122.5 536t357.5 187q236 0 357.5 -185.5t121.5 -531.5q0 -359 -113 -536.5t-362 -177.5t-366.5 178.5t-117.5 529.5zM227 698q0 -328 94 -486.5t304 -158.5q209 0 301 157t92 480q0 328 -97 494t-298 166q-396 0 -396 -652zM406 1606q0 31 17 49t48 18 t49.5 -18t18.5 -49t-17.5 -49.5t-48.5 -18.5t-49 18.5t-18 49.5zM709 1606q0 31 17 49t48 18t49.5 -18t18.5 -49t-17.5 -49.5t-48.5 -18.5t-49 18.5t-18 49.5z" />
<glyph unicode="&#xd7;" horiz-adv-x="917" d="M164 287l250 284l-250 285l53 45l242 -276l243 276l52 -45l-250 -285l250 -284l-54 -45l-243 276l-242 -276z" />
<glyph unicode="&#xd8;" horiz-adv-x="1245" d="M125 -63l137 225q-119 176 -119 532q0 349 122.5 536t357.5 187q199 0 321 -137l113 186l61 -34l-129 -213q113 -183 113 -519q0 -359 -113 -536.5t-362 -177.5q-200 0 -318 118l-123 -202zM227 698q0 -312 78 -465l598 981q-95 136 -280 136q-396 0 -396 -652zM348 168 q93 -115 277 -115q209 0 301 157t92 480q0 295 -74 455z" />
<glyph unicode="&#xd9;" horiz-adv-x="1202" d="M193 391v1012h81v-1000q0 -187 67.5 -267.5t203.5 -80.5q120 0 215.5 47t159.5 111v1190h81v-1403h-51l-28 143q-165 -157 -375 -157q-169 0 -261.5 98t-92.5 307zM377 1696l45 63l299 -215l-33 -43z" />
<glyph unicode="&#xda;" horiz-adv-x="1202" d="M193 391v1012h81v-1000q0 -187 67.5 -267.5t203.5 -80.5q120 0 215.5 47t159.5 111v1190h81v-1403h-51l-28 143q-165 -157 -375 -157q-169 0 -261.5 98t-92.5 307zM485 1544l299 215l45 -63l-311 -195z" />
<glyph unicode="&#xdb;" horiz-adv-x="1202" d="M193 391v1012h81v-1000q0 -187 67.5 -267.5t203.5 -80.5q120 0 215.5 47t159.5 111v1190h81v-1403h-51l-28 143q-165 -157 -375 -157q-169 0 -261.5 98t-92.5 307zM369 1542l211 225h45l215 -225l-37 -37l-201 185l-196 -185z" />
<glyph unicode="&#xdc;" horiz-adv-x="1202" d="M193 391v1012h81v-1000q0 -187 67.5 -267.5t203.5 -80.5q120 0 215.5 47t159.5 111v1190h81v-1403h-51l-28 143q-165 -157 -375 -157q-169 0 -261.5 98t-92.5 307zM383 1606q0 31 17.5 49t48.5 18t49 -18t18 -49t-17.5 -49.5t-47.5 -18.5q-31 0 -49.5 18.5t-18.5 49.5z M686 1606q0 31 17.5 49t48.5 18t49 -18t18 -49t-17.5 -49.5t-47.5 -18.5q-31 0 -49.5 18.5t-18.5 49.5z" />
<glyph unicode="&#xdd;" horiz-adv-x="1101" d="M90 1403h86l297 -623q56 -120 72 -172q32 90 69 172l291 623h84l-405 -862v-541h-82v543zM457 1544l299 215l45 -63l-312 -195z" />
<glyph unicode="&#xde;" horiz-adv-x="1038" d="M201 0v1403h82v-238h221q207 0 309 -99.5t102 -291.5q0 -202 -102 -305.5t-287 -103.5h-243v-365h-82zM283 432h235q158 0 233.5 82t75.5 258q0 171 -77 248.5t-254 77.5h-213v-666z" />
<glyph unicode="&#xdf;" horiz-adv-x="1042" d="M184 0v1051q0 192 90 300.5t240 108.5q131 0 201.5 -73.5t70.5 -186.5q0 -57 -23 -109.5t-56 -91t-65.5 -72t-55.5 -65t-23 -57.5q0 -36 27 -63.5t117 -92.5q101 -73 137 -110q96 -98 96 -234q0 -154 -90.5 -236.5t-235.5 -82.5q-27 0 -51.5 2t-41 5t-35 8t-27.5 8 t-23.5 9t-17.5 7l20 61q85 -35 183 -35q112 0 174.5 64.5t62.5 189.5q0 52 -14.5 95t-44 77.5t-57.5 57.5t-70 51q-96 65 -123 90q-64 58 -64 127q0 36 23 72t55.5 68.5t65 68.5t55.5 85.5t23 104.5q0 89 -49 141t-146 52q-126 0 -188 -91t-62 -257v-1047h-78z" />
<glyph unicode="&#xe0;" d="M123 258q0 150 94.5 222.5t296.5 72.5h160v137q0 100 -39.5 149.5t-134.5 49.5q-139 0 -289 -103l-33 54q76 55 151.5 84.5t172.5 29.5q250 0 250 -258v-696h-45l-31 135q-42 -59 -115 -104t-168 -45q-127 0 -198.5 72t-71.5 200zM203 256q0 -201 196 -201q165 0 275 150 v282h-154q-175 0 -246 -53t-71 -178zM285 1264l45 63l299 -215l-33 -43z" />
<glyph unicode="&#xe1;" d="M123 258q0 150 94.5 222.5t296.5 72.5h160v137q0 100 -39.5 149.5t-134.5 49.5q-139 0 -289 -103l-33 54q76 55 151.5 84.5t172.5 29.5q250 0 250 -258v-696h-45l-31 135q-42 -59 -115 -104t-168 -45q-127 0 -198.5 72t-71.5 200zM203 256q0 -201 196 -201q165 0 275 150 v282h-154q-175 0 -246 -53t-71 -178zM328 1112l299 215l45 -63l-312 -195z" />
<glyph unicode="&#xe2;" d="M123 258q0 150 94.5 222.5t296.5 72.5h160v137q0 100 -39.5 149.5t-134.5 49.5q-139 0 -289 -103l-33 54q76 55 151.5 84.5t172.5 29.5q250 0 250 -258v-696h-45l-31 135q-42 -59 -115 -104t-168 -45q-127 0 -198.5 72t-71.5 200zM203 256q0 -201 196 -201q165 0 275 150 v282h-154q-175 0 -246 -53t-71 -178zM252 1110l211 225h45l215 -225l-37 -37l-201 184l-196 -184z" />
<glyph unicode="&#xe3;" d="M123 258q0 150 94.5 222.5t296.5 72.5h160v137q0 100 -39.5 149.5t-134.5 49.5q-139 0 -289 -103l-33 54q76 55 151.5 84.5t172.5 29.5q250 0 250 -258v-696h-45l-31 135q-42 -59 -115 -104t-168 -45q-127 0 -198.5 72t-71.5 200zM203 256q0 -201 196 -201q165 0 275 150 v282h-154q-175 0 -246 -53t-71 -178zM209 1126q53 127 149 127q41 0 112 -36.5t101 -36.5q18 0 32 5.5t25.5 19.5t18 24.5t17.5 32.5l55 -25q-52 -127 -150 -127q-41 0 -112 37t-101 37q-18 0 -32 -5.5t-25.5 -19.5t-17 -24t-17.5 -33z" />
<glyph unicode="&#xe4;" d="M123 258q0 150 94.5 222.5t296.5 72.5h160v137q0 100 -39.5 149.5t-134.5 49.5q-139 0 -289 -103l-33 54q76 55 151.5 84.5t172.5 29.5q250 0 250 -258v-696h-45l-31 135q-42 -59 -115 -104t-168 -45q-127 0 -198.5 72t-71.5 200zM203 256q0 -201 196 -201q165 0 275 150 v282h-154q-175 0 -246 -53t-71 -178zM258 1174q0 31 17.5 49t48.5 18t49 -18t18 -49t-17.5 -49.5t-47.5 -18.5q-31 0 -49.5 18.5t-18.5 49.5zM561 1174q0 31 17.5 49t48.5 18t49 -18t18 -49t-17.5 -49.5t-47.5 -18.5q-31 0 -49.5 18.5t-18.5 49.5z" />
<glyph unicode="&#xe5;" d="M123 258q0 150 94.5 222.5t296.5 72.5h160v137q0 100 -39.5 149.5t-134.5 49.5q-139 0 -289 -103l-33 54q76 55 151.5 84.5t172.5 29.5q250 0 250 -258v-696h-45l-31 135q-42 -59 -115 -104t-168 -45q-127 0 -198.5 72t-71.5 200zM203 256q0 -201 196 -201q165 0 275 150 v282h-154q-175 0 -246 -53t-71 -178zM322 1247q0 69 43.5 120.5t115.5 51.5q71 0 114.5 -51.5t43.5 -120.5q0 -67 -43.5 -118.5t-114.5 -51.5t-115 51.5t-44 118.5zM387 1247q0 -56 26 -85t68 -29q39 0 65.5 29t26.5 85q0 57 -26.5 87t-65.5 30q-42 0 -68 -29.5t-26 -87.5z " />
<glyph unicode="&#xe6;" horiz-adv-x="1472" d="M123 254q0 149 94 220t297 71h160v145q0 98 -41.5 148.5t-132.5 50.5q-139 0 -289 -103l-33 54q76 55 151.5 84.5t172.5 29.5q200 0 235 -182q83 182 285 182q324 0 324 -450v-23h-596v-8q0 -228 71 -325t223 -97q139 0 244 84l45 -55q-128 -94 -284 -94q-240 0 -324 196 q-137 -196 -332 -196q-127 0 -198.5 70.5t-71.5 197.5zM203 252q0 -197 196 -197q90 0 166 49t131 129q-22 126 -22 248h-154q-175 0 -246 -53t-71 -176zM752 545h514q0 188 -61 266t-183 78q-121 0 -190 -80t-80 -264z" />
<glyph unicode="&#xe7;" horiz-adv-x="856" d="M127 467q0 129 27.5 225t77.5 152t113.5 83t141.5 27q87 0 148.5 -28.5t112.5 -81.5l-50 -51q-45 49 -93.5 72.5t-121.5 23.5q-276 0 -276 -416q0 -226 70 -324t212 -98q139 0 224 103l55 -43q-108 -125 -279 -125l-45 -97q61 -1 98.5 -40.5t37.5 -102.5 q0 -70 -41 -109.5t-117 -39.5q-79 0 -141 55l36 47q31 -22 53 -31.5t54 -9.5q86 0 86 86q0 42 -23 65t-63 23q-38 0 -74 -8l72 166q-295 49 -295 477z" />
<glyph unicode="&#xe8;" d="M127 467q0 130 27 226t75.5 152t111 82.5t138.5 26.5q324 0 324 -450v-33h-596q0 -226 71.5 -323t223.5 -97q138 0 243 84l46 -55q-128 -94 -285 -94q-379 0 -379 481zM209 535h514q0 189 -61.5 271.5t-182.5 82.5q-123 0 -192 -82.5t-78 -271.5zM281 1264l45 63 l299 -215l-33 -43z" />
<glyph unicode="&#xe9;" d="M127 467q0 130 27 226t75.5 152t111 82.5t138.5 26.5q324 0 324 -450v-33h-596q0 -226 71.5 -323t223.5 -97q138 0 243 84l46 -55q-128 -94 -285 -94q-379 0 -379 481zM209 535h514q0 189 -61.5 271.5t-182.5 82.5q-123 0 -192 -82.5t-78 -271.5zM328 1112l299 215 l45 -63l-312 -195z" />
<glyph unicode="&#xea;" d="M127 467q0 130 27 226t75.5 152t111 82.5t138.5 26.5q324 0 324 -450v-33h-596q0 -226 71.5 -323t223.5 -97q138 0 243 84l46 -55q-128 -94 -285 -94q-379 0 -379 481zM209 535h514q0 189 -61.5 271.5t-182.5 82.5q-123 0 -192 -82.5t-78 -271.5zM242 1110l211 225h45 l215 -225l-37 -37l-201 184l-196 -184z" />
<glyph unicode="&#xeb;" d="M127 467q0 130 27 226t75.5 152t111 82.5t138.5 26.5q324 0 324 -450v-33h-596q0 -226 71.5 -323t223.5 -97q138 0 243 84l46 -55q-128 -94 -285 -94q-379 0 -379 481zM209 535h514q0 189 -61.5 271.5t-182.5 82.5q-123 0 -192 -82.5t-78 -271.5zM262 1174q0 31 17.5 49 t48.5 18t49 -18t18 -49t-17.5 -49.5t-47.5 -18.5q-31 0 -49.5 18.5t-18.5 49.5zM565 1174q0 31 17.5 49t48.5 18t49 -18t18 -49t-17.5 -49.5t-47.5 -18.5q-31 0 -49.5 18.5t-18.5 49.5z" />
<glyph unicode="&#xec;" horiz-adv-x="518" d="M47 1264l45 63l299 -215l-33 -43zM117 891v49h207v-940h-78v877z" />
<glyph unicode="&#xed;" horiz-adv-x="518" d="M117 891v49h207v-940h-78v877zM143 1112l299 215l45 -63l-311 -195z" />
<glyph unicode="&#xee;" horiz-adv-x="518" d="M27 1110l211 225h45l215 -225l-37 -37l-201 184l-197 -184zM117 891v49h207v-940h-78v877z" />
<glyph unicode="&#xef;" horiz-adv-x="518" d="M41 1174q0 31 17 49t48 18t49.5 -18t18.5 -49t-17.5 -49.5t-47.5 -18.5q-31 0 -49.5 18.5t-18.5 49.5zM117 891v49h207v-940h-78v877zM344 1174q0 31 17.5 49t48.5 18t49 -18t18 -49t-17.5 -49.5t-47.5 -18.5q-31 0 -49.5 18.5t-18.5 49.5z" />
<glyph unicode="&#xf0;" horiz-adv-x="985" d="M127 467q0 249 97 368t261 119q81 0 153.5 -36t117.5 -109q-54 266 -215 424l-228 -141l-37 53l216 133q-76 66 -216 143l29 56q161 -86 248 -162l195 119l34 -52q-180 -110 -180 -112q256 -252 256 -750q0 -147 -26 -252t-75.5 -166t-114 -88.5t-148.5 -27.5 q-167 0 -267 117t-100 364zM207 473q0 -222 73 -323t214 -101t212.5 98t71.5 316q0 222 -73 325t-213 103q-141 0 -213 -98.5t-72 -319.5z" />
<glyph unicode="&#xf1;" horiz-adv-x="993" d="M184 0v940h45l31 -152q83 80 160 123t162 43q106 0 171.5 -65t65.5 -187v-702h-78v688q0 197 -166 197q-78 0 -151.5 -40t-161.5 -116v-729h-78zM238 1126q53 127 149 127q41 0 112 -36.5t101 -36.5q18 0 32 5.5t25.5 19.5t17 24t17.5 33l56 -25q-52 -127 -150 -127 q-41 0 -112 37t-101 37q-18 0 -32 -5.5t-25.5 -19.5t-17 -24t-17.5 -33z" />
<glyph unicode="&#xf2;" horiz-adv-x="985" d="M127 467q0 249 97.5 368t262.5 119q80 0 145.5 -27.5t117 -83.5t80 -151t28.5 -221q0 -247 -98.5 -366t-265.5 -119t-267 117t-100 364zM207 473q0 -222 73 -323t214 -101t212.5 98t71.5 316q0 222 -73 325t-213 103q-141 0 -213 -98.5t-72 -319.5zM283 1264l45 63 l299 -215l-33 -43z" />
<glyph unicode="&#xf3;" horiz-adv-x="985" d="M127 467q0 249 97.5 368t262.5 119q80 0 145.5 -27.5t117 -83.5t80 -151t28.5 -221q0 -247 -98.5 -366t-265.5 -119t-267 117t-100 364zM207 473q0 -222 73 -323t214 -101t212.5 98t71.5 316q0 222 -73 325t-213 103q-141 0 -213 -98.5t-72 -319.5zM356 1112l299 215 l45 -63l-311 -195z" />
<glyph unicode="&#xf4;" horiz-adv-x="985" d="M127 467q0 249 97.5 368t262.5 119q80 0 145.5 -27.5t117 -83.5t80 -151t28.5 -221q0 -247 -98.5 -366t-265.5 -119t-267 117t-100 364zM207 473q0 -222 73 -323t214 -101t212.5 98t71.5 316q0 222 -73 325t-213 103q-141 0 -213 -98.5t-72 -319.5zM260 1110l211 225h45 l215 -225l-37 -37l-200 184l-197 -184z" />
<glyph unicode="&#xf5;" horiz-adv-x="985" d="M127 467q0 249 97.5 368t262.5 119q80 0 145.5 -27.5t117 -83.5t80 -151t28.5 -221q0 -247 -98.5 -366t-265.5 -119t-267 117t-100 364zM207 473q0 -222 73 -323t214 -101t212.5 98t71.5 316q0 222 -73 325t-213 103q-141 0 -213 -98.5t-72 -319.5zM238 1126 q53 127 149 127q41 0 112 -36.5t101 -36.5q18 0 32 5.5t25.5 19.5t17 24t17.5 33l56 -25q-52 -127 -150 -127q-41 0 -112 37t-101 37q-18 0 -32 -5.5t-25.5 -19.5t-17 -24t-17.5 -33z" />
<glyph unicode="&#xf6;" horiz-adv-x="985" d="M127 467q0 249 97.5 368t262.5 119q80 0 145.5 -27.5t117 -83.5t80 -151t28.5 -221q0 -247 -98.5 -366t-265.5 -119t-267 117t-100 364zM207 473q0 -222 73 -323t214 -101t212.5 98t71.5 316q0 222 -73 325t-213 103q-141 0 -213 -98.5t-72 -319.5zM274 1174 q0 31 17.5 49t48.5 18t49.5 -18t18.5 -49t-17.5 -49.5t-48.5 -18.5t-49.5 18.5t-18.5 49.5zM578 1174q0 31 17 49t48 18t49.5 -18t18.5 -49t-17.5 -49.5t-48.5 -18.5t-49 18.5t-18 49.5z" />
<glyph unicode="&#xf7;" horiz-adv-x="1032" d="M150 547v67h733v-67h-733zM436 279q0 33 23.5 56t56.5 23t56.5 -23t23.5 -56t-23.5 -56.5t-56.5 -23.5t-56.5 23.5t-23.5 56.5zM436 883q0 33 23.5 56.5t56.5 23.5t56.5 -23.5t23.5 -56.5t-23.5 -56.5t-56.5 -23.5t-56.5 23.5t-23.5 56.5z" />
<glyph unicode="&#xf8;" horiz-adv-x="985" d="M117 -61l108 165q-98 125 -98 363q0 249 97.5 368t262.5 119q141 0 234 -84l94 146l53 -37l-102 -156q92 -129 92 -352q0 -247 -98.5 -366t-265.5 -119q-136 0 -224 71l-100 -155zM207 473q0 -202 59 -305q27 41 70.5 108t135.5 209t153 236.5t61 93.5q-67 76 -194 76 q-141 0 -213 -98.5t-72 -319.5zM307 115q69 -66 187 -66q141 0 212.5 98t71.5 316q0 192 -53 295z" />
<glyph unicode="&#xf9;" horiz-adv-x="993" d="M174 238v702h78v-688q0 -197 166 -197q79 0 153 35.5t160 102.5v747h78v-940h-45l-31 133q-168 -147 -321 -147q-106 0 -172 65t-66 187zM283 1264l45 63l299 -215l-33 -43z" />
<glyph unicode="&#xfa;" horiz-adv-x="993" d="M174 238v702h78v-688q0 -197 166 -197q79 0 153 35.5t160 102.5v747h78v-940h-45l-31 133q-168 -147 -321 -147q-106 0 -172 65t-66 187zM367 1112l299 215l45 -63l-312 -195z" />
<glyph unicode="&#xfb;" horiz-adv-x="993" d="M174 238v702h78v-688q0 -197 166 -197q79 0 153 35.5t160 102.5v747h78v-940h-45l-31 133q-168 -147 -321 -147q-106 0 -172 65t-66 187zM264 1110l211 225h45l215 -225l-37 -37l-200 184l-197 -184z" />
<glyph unicode="&#xfc;" horiz-adv-x="993" d="M174 238v702h78v-688q0 -197 166 -197q79 0 153 35.5t160 102.5v747h78v-940h-45l-31 133q-168 -147 -321 -147q-106 0 -172 65t-66 187zM279 1174q0 31 17 49t48 18t49.5 -18t18.5 -49t-17.5 -49.5t-48.5 -18.5t-49 18.5t-18 49.5zM582 1174q0 31 17 49t48 18t49.5 -18 t18.5 -49t-17.5 -49.5t-48.5 -18.5t-49 18.5t-18 49.5z" />
<glyph unicode="&#xfd;" horiz-adv-x="882" d="M86 940h82l205 -643q44 -140 71 -256h2q6 29 16.5 64.5t29 93t30.5 98.5l195 643h80l-310 -991q-39 -124 -84 -195.5t-102.5 -110t-157.5 -71.5l-22 57q135 49 198.5 125.5t110.5 245.5h-43zM326 1112l299 215l45 -63l-312 -195z" />
<glyph unicode="&#xfe;" horiz-adv-x="999" d="M184 -424v1874h78v-647q56 62 132.5 106.5t160.5 44.5q150 0 233.5 -122t83.5 -367q0 -240 -85 -359.5t-242 -119.5t-283 141v-551h-78zM262 193q135 -138 279 -138q252 0 252 400q0 121 -16.5 205.5t-49 133t-76.5 70t-104 21.5q-43 0 -83 -12t-80.5 -39t-61 -43.5 t-60.5 -51.5v-546z" />
<glyph unicode="&#xff;" horiz-adv-x="882" d="M86 940h82l205 -643q44 -140 71 -256h2q6 29 16.5 64.5t29 93t30.5 98.5l195 643h80l-310 -991q-39 -124 -84 -195.5t-102.5 -110t-157.5 -71.5l-22 57q135 49 198.5 125.5t110.5 245.5h-43zM223 1174q0 31 17.5 49t48.5 18t49 -18t18 -49t-17.5 -49.5t-47.5 -18.5 q-31 0 -49.5 18.5t-18.5 49.5zM526 1174q0 31 17.5 49t48.5 18t49 -18t18 -49t-17.5 -49.5t-47.5 -18.5q-31 0 -49.5 18.5t-18.5 49.5z" />
<glyph unicode="&#x152;" horiz-adv-x="1697" d="M143 729q0 362 126 518t421 156h881v-68h-592v-561h483v-67h-483v-639h614v-68h-899q-156 0 -261 40.5t-169.5 131t-92.5 225t-28 332.5zM227 723q0 -180 21 -298t72.5 -201t140 -119.5t223.5 -36.5h213v1267h-215q-106 0 -183 -23.5t-130 -69t-84 -120.5t-44.5 -171 t-13.5 -228z" />
<glyph unicode="&#x153;" horiz-adv-x="1576" d="M127 467q0 249 97.5 368t262.5 119q250 0 328 -247q74 247 313 247q324 0 324 -450v-33h-596q0 -226 71.5 -323t223.5 -97q139 0 244 84l45 -55q-128 -94 -285 -94q-266 0 -338 245q-75 -245 -323 -245q-167 0 -267 117t-100 364zM207 473q0 -222 73 -323t214 -101 t212.5 98t71.5 316q0 222 -73 325t-213 103q-141 0 -213 -98.5t-72 -319.5zM858 535h514q0 189 -61.5 271.5t-182.5 82.5q-123 0 -192 -82.5t-78 -271.5z" />
<glyph unicode="&#x178;" horiz-adv-x="1101" d="M90 1403h86l297 -623q56 -120 72 -172q32 90 69 172l291 623h84l-405 -862v-541h-82v543zM330 1606q0 31 17 49t48 18t49.5 -18t18.5 -49t-17.5 -49.5t-48.5 -18.5t-49 18.5t-18 49.5zM633 1606q0 31 17 49t48 18t49.5 -18t18.5 -49t-17.5 -49.5t-48.5 -18.5t-49 18.5 t-18 49.5z" />
<glyph unicode="&#x2c6;" horiz-adv-x="1107" d="M322 1110l210 225h46l215 -225l-37 -37l-201 184l-197 -184z" />
<glyph unicode="&#x2dc;" horiz-adv-x="1107" d="M299 1126q53 127 150 127q41 0 112 -36.5t101 -36.5q18 0 32 5.5t25.5 19.5t17 24t17.5 33l55 -25q-52 -127 -150 -127q-41 0 -112 37t-101 37q-18 0 -32 -5.5t-25.5 -19.5t-17 -24t-17.5 -33z" />
<glyph unicode="&#x2000;" horiz-adv-x="925" />
<glyph unicode="&#x2001;" horiz-adv-x="1851" />
<glyph unicode="&#x2002;" horiz-adv-x="925" />
<glyph unicode="&#x2003;" horiz-adv-x="1851" />
<glyph unicode="&#x2004;" horiz-adv-x="617" />
<glyph unicode="&#x2005;" horiz-adv-x="462" />
<glyph unicode="&#x2006;" horiz-adv-x="308" />
<glyph unicode="&#x2007;" horiz-adv-x="308" />
<glyph unicode="&#x2008;" horiz-adv-x="231" />
<glyph unicode="&#x2009;" horiz-adv-x="370" />
<glyph unicode="&#x200a;" horiz-adv-x="102" />
<glyph unicode="&#x2010;" horiz-adv-x="581" d="M119 510v72h344v-72h-344z" />
<glyph unicode="&#x2011;" horiz-adv-x="581" d="M119 510v72h344v-72h-344z" />
<glyph unicode="&#x2012;" horiz-adv-x="581" d="M119 510v72h344v-72h-344z" />
<glyph unicode="&#x2013;" horiz-adv-x="931" d="M119 541v67h694v-67h-694z" />
<glyph unicode="&#x2014;" horiz-adv-x="1320" d="M119 541v67h1083v-67h-1083z" />
<glyph unicode="&#x2018;" horiz-adv-x="399" d="M115 1188q0 177 151 225l19 -43q-92 -41 -92 -133q37 -1 60 -23.5t23 -54.5q0 -35 -22 -56.5t-53 -21.5q-38 0 -62 28.5t-24 78.5z" />
<glyph unicode="&#x2019;" horiz-adv-x="399" d="M115 1120q92 41 92 133q-37 1 -60.5 23.5t-23.5 54.5q0 33 22.5 55.5t53.5 22.5q38 0 62 -28t24 -78q0 -181 -152 -226z" />
<glyph unicode="&#x201a;" horiz-adv-x="399" d="M115 -137q92 41 92 133q-37 1 -60.5 23.5t-23.5 54.5q0 33 22.5 55.5t53.5 22.5q38 0 62 -29.5t24 -79.5q0 -178 -152 -223z" />
<glyph unicode="&#x201c;" horiz-adv-x="686" d="M115 1188q0 177 151 225l19 -43q-92 -41 -92 -133q37 -1 60 -23.5t23 -54.5q0 -35 -22 -56.5t-53 -21.5q-38 0 -62 28.5t-24 78.5zM401 1188q0 177 152 225l16 -43q-90 -42 -90 -133q37 -1 60.5 -23.5t23.5 -54.5q0 -34 -22 -56t-54 -22q-39 0 -62.5 28.5t-23.5 78.5z " />
<glyph unicode="&#x201d;" horiz-adv-x="686" d="M115 1120q92 41 92 133q-37 1 -60.5 23.5t-23.5 54.5q0 33 22.5 55.5t53.5 22.5q38 0 62 -28t24 -78q0 -181 -152 -226zM401 1120q93 44 93 133q-39 1 -61.5 23.5t-22.5 54.5q0 34 21.5 56t53.5 22q38 0 61 -28t23 -78q0 -181 -149 -226z" />
<glyph unicode="&#x201e;" horiz-adv-x="686" d="M115 -137q92 41 92 133q-37 1 -60.5 23.5t-23.5 54.5q0 33 22.5 55.5t53.5 22.5q38 0 62 -29.5t24 -79.5q0 -178 -152 -223zM401 -137q93 44 93 133q-39 1 -61.5 23.5t-22.5 54.5q0 34 21.5 56t53.5 22q37 0 60.5 -29.5t23.5 -79.5q0 -178 -149 -223z" />
<glyph unicode="&#x2022;" horiz-adv-x="495" d="M111 657q0 63 38.5 106.5t98.5 43.5t98.5 -43.5t38.5 -106.5t-38.5 -106t-98.5 -43t-98.5 43t-38.5 106z" />
<glyph unicode="&#x2026;" horiz-adv-x="1183" d="M137 68q0 33 23.5 56t56.5 23t56.5 -23t23.5 -56t-23.5 -56.5t-56.5 -23.5t-56.5 23.5t-23.5 56.5zM512 68q0 33 23.5 56t56.5 23t56.5 -23t23.5 -56t-23.5 -56.5t-56.5 -23.5t-56.5 23.5t-23.5 56.5zM887 68q0 33 23.5 56t56.5 23t56.5 -23t23.5 -56t-23.5 -56.5 t-56.5 -23.5t-56.5 23.5t-23.5 56.5z" />
<glyph unicode="&#x202f;" horiz-adv-x="370" />
<glyph unicode="&#x2039;" horiz-adv-x="563" d="M117 500l260 397l59 -41l-233 -356l233 -353l-59 -41z" />
<glyph unicode="&#x203a;" horiz-adv-x="563" d="M127 147l233 357l-233 352l59 41l260 -393l-260 -398z" />
<glyph unicode="&#x205f;" horiz-adv-x="462" />
<glyph unicode="&#x20ac;" horiz-adv-x="1132" d="M53 485v68h176q-2 29 -2 90q0 41 4 115h-178v67h185q59 490 452 490q108 0 185 -27t147 -78l-43 -57q-116 92 -289 92q-169 0 -258 -106t-113 -314h478v-67h-484q-2 -35 -2 -111q0 -63 2 -94h484v-68h-480q22 -218 115 -324t281 -106q97 0 163.5 26t124.5 73l46 -56 q-128 -112 -334 -112q-425 0 -477 499h-183z" />
<glyph unicode="&#x2122;" horiz-adv-x="1421" d="M115 1339v64h444v-64h-184v-667h-76v667h-184zM709 672v731h112l135 -397q27 -77 35 -142h2q10 82 33 142l135 397h115v-731h-76v477q0 61 2 123.5t2 70.5q-19 -77 -55 -182l-125 -348h-70l-125 342q-14 38 -24 74t-18 72t-11 47h-2q6 -135 6 -199v-477h-71z" />
<glyph unicode="&#x25fc;" horiz-adv-x="942" d="M0 0v942h942v-942h-942z" />
<glyph unicode="&#xfb01;" horiz-adv-x="952" d="M88 877v63h119v260q0 133 72 199.5t176 66.5q73 0 124.5 -17.5t104.5 -57.5l-39 -54q-50 34 -89 49t-101 15q-78 0 -124 -49.5t-46 -157.5v-254h483v-940h-78v877h-405v-877h-78v877h-119z" />
<glyph unicode="&#xfb02;" horiz-adv-x="983" d="M88 877v63h119v238q0 150 84.5 219t220.5 69q90 0 188 -16h68v-1313q0 -50 17.5 -69t52.5 -19q12 0 23 2t17 4l5 2l16 -55q-37 -16 -72 -16q-59 0 -98 34t-39 113v1249q-89 19 -178 19q-110 0 -168.5 -53t-58.5 -177v-231h225v-63h-225v-877h-78v877h-119z" />
<glyph unicode="&#xfb03;" horiz-adv-x="1435" d="M88 877v63h119v293q0 100 54 156.5t134 56.5q56 0 94.5 -11t77.5 -38l-35 -56q-67 39 -133 39q-114 0 -114 -153v-287h405v260q0 133 72 199.5t176 66.5q73 0 124.5 -17.5t104.5 -57.5l-39 -54q-50 34 -89 49t-101 15q-78 0 -124 -49.5t-46 -157.5v-254h483v-940h-77v877 h-406v-877h-78v877h-405v-877h-78v877h-119z" />
<glyph unicode="&#xfb04;" horiz-adv-x="1466" d="M88 877v63h119v293q0 100 54 156.5t134 56.5q56 0 94.5 -11t77.5 -38l-35 -56q-67 39 -133 39q-114 0 -114 -153v-287h405v238q0 150 84.5 219t220.5 69q91 0 189 -16h67v-1313q0 -50 17.5 -69t52.5 -19q12 0 23.5 2t16.5 4l5 2l16 -55q-37 -16 -71 -16q-59 0 -98 34 t-39 113v1249q-89 19 -179 19q-110 0 -168.5 -53t-58.5 -177v-231h225v-63h-225v-877h-78v877h-405v-877h-78v877h-119z" />
</font>
</defs>
</svg>
