<?xml version="1.0" standalone="no"?>
<!DOCTYPE svg PUBLIC "-//W3C//DTD SVG 1.1//EN" "http://www.w3.org/Graphics/SVG/1.1/DTD/svg11.dtd" >
<svg xmlns="http://www.w3.org/2000/svg">
<metadata></metadata>
<defs>
<font id="unitblacktf" horiz-adv-x="1126" >
<font-face units-per-em="2048" ascent="1638" descent="-410" />
<missing-glyph horiz-adv-x="462" />
<glyph horiz-adv-x="2048" />
<glyph horiz-adv-x="2048" />
<glyph unicode="&#xd;" horiz-adv-x="2048" />
<glyph unicode=" "  horiz-adv-x="462" />
<glyph unicode="&#x09;" horiz-adv-x="462" />
<glyph unicode="&#xa0;" horiz-adv-x="462" />
<glyph unicode="!" horiz-adv-x="626" d="M123 1427h393l-63 -1007h-254zM137 162q0 78 55.5 134t133.5 56t133 -56t55 -134t-55 -133.5t-133 -55.5t-133.5 55.5t-55.5 133.5z" />
<glyph unicode="&#x22;" horiz-adv-x="1032" d="M115 815v635h317v-635h-317zM602 815v635h316v-635h-316z" />
<glyph unicode="#" d="M96 354v207h162l29 215h-140v207h166l45 334h215l-45 -334h150l45 334h217l-45 -334h135v-207h-162l-28 -215h141v-207h-168l-47 -354h-215l45 354h-150l-45 -354h-217l47 354h-135zM473 561h150l28 215h-149z" />
<glyph unicode="$" d="M76 92l114 285q63 -43 149.5 -69.5t162.5 -26.5q81 0 115 26.5t34 81.5q0 57 -25 76t-114 41q-72 18 -123.5 36.5t-104.5 52t-85.5 77.5t-53 111.5t-20.5 154.5q0 332 305 391v275h287v-271q140 -17 248 -88l-131 -264q-63 34 -116.5 48.5t-125.5 14.5q-111 0 -111 -90 q0 -29 2.5 -42.5t14.5 -27t34.5 -22t65.5 -18.5q48 -11 81 -20t76 -23.5t72 -31.5t61.5 -40.5t53.5 -53.5t39 -68t26.5 -87t8.5 -108q0 -366 -338 -424v-256h-287v254q-202 24 -315 106z" />
<glyph unicode="%" horiz-adv-x="1638" d="M39 987q0 173 93 264.5t255 91.5q161 0 250.5 -91t89.5 -265q0 -173 -93 -264.5t-255 -91.5q-161 0 -250.5 91t-89.5 265zM307 989q0 -99 15.5 -134.5t60.5 -35.5t60.5 35.5t15.5 134.5t-15.5 134.5t-60.5 35.5t-60.5 -35.5t-15.5 -134.5zM322 0l720 1317h273l-721 -1317 h-272zM909 330q0 173 93 264.5t255 91.5q161 0 250.5 -91t89.5 -265q0 -173 -93 -265t-255 -92q-161 0 -250.5 91.5t-89.5 265.5zM1178 332q0 -100 15 -135t60 -35t60.5 35.5t15.5 134.5t-15.5 134.5t-60.5 35.5t-60 -35t-15 -135z" />
<glyph unicode="&#x26;" horiz-adv-x="1370" d="M53 389q0 145 71.5 239t217.5 154q-121 134 -121 310q0 164 107 263t299 99q179 0 283 -96.5t104 -253.5q0 -119 -68 -199t-201 -147l187 -232q37 80 76 213l243 -75q-67 -226 -143 -357l250 -307h-424l-47 59q-138 -86 -328 -86q-238 0 -372 103.5t-134 312.5zM416 416 q0 -185 180 -185q69 0 131 35l-252 322q-33 -26 -46 -65t-13 -107zM539 1098q0 -47 13 -80t42 -70l29 -37q59 45 77.5 83t18.5 98q0 58 -19 87t-69 29q-49 0 -70.5 -27.5t-21.5 -82.5z" />
<glyph unicode="'" horiz-adv-x="544" d="M115 815v635h315v-635h-315z" />
<glyph unicode="(" horiz-adv-x="716" d="M78 616q0 104 6 192.5t21.5 180t41 166.5t66 147t94.5 128.5t128.5 104t166.5 79.5l86 -211q-87 -60 -121 -97q-101 -107 -132 -330q-19 -129 -19 -310q0 -171 13 -299.5t34.5 -212t58 -145t74 -96.5t92.5 -67l-86 -211q-149 52 -252.5 143t-162 219.5t-84 278 t-25.5 340.5z" />
<glyph unicode=")" horiz-adv-x="716" d="M23 -154q87 61 122 96q103 107 136 328q20 131 20 314q0 212 -19 358t-59 235t-85 137t-115 89l86 211q149 -52 253.5 -143t164.5 -219.5t86 -278.5t26 -340q0 -148 -13 -267.5t-48.5 -238.5t-93.5 -209t-152.5 -164.5t-222.5 -118.5z" />
<glyph unicode="*" horiz-adv-x="1013" d="M72 1032l90 246l225 -96v272h264v-272l226 82l90 -246l-265 -66l183 -221l-207 -156l-158 211l-160 -211l-206 158l182 211z" />
<glyph unicode="+" d="M86 475v324h309v336h336v-336h309v-324h-309v-344h-336v344h-309z" />
<glyph unicode="," horiz-adv-x="552" d="M63 190q0 81 54 135t133 54q101 0 164 -69t63 -185q0 -348 -358 -422l-45 162q73 24 107.5 54t37.5 75q-68 15 -112 64t-44 132z" />
<glyph unicode="-" horiz-adv-x="677" d="M88 403v334h502v-334h-502z" />
<glyph unicode="." horiz-adv-x="552" d="M72 178q0 82 59.5 141.5t142.5 59.5t144 -59.5t61 -141.5q0 -84 -60.5 -144.5t-144.5 -60.5q-83 0 -142.5 60t-59.5 145z" />
<glyph unicode="/" horiz-adv-x="780" d="M4 -324l512 1899h260l-512 -1899h-260z" />
<glyph unicode="0" d="M59 655q0 688 506 688q85 0 156 -19t136.5 -67.5t110 -124.5t71 -197.5t26.5 -279.5t-26.5 -278.5t-71.5 -195.5t-110.5 -122.5t-136.5 -65.5t-157 -18t-156.5 18.5t-137 65.5t-111.5 122.5t-72 195.5t-27 278zM418 662q0 -167 15.5 -258.5t46 -125.5t83.5 -34 q52 0 82 34.5t46 127.5t16 260q0 162 -16 252.5t-46 124.5t-82 34q-53 0 -83.5 -35t-46 -126t-15.5 -254z" />
<glyph unicode="1" d="M133 952l410 365h243v-1051h205v-266h-784v266h231v590l-205 -108z" />
<glyph unicode="2" d="M90 1233q57 32 103.5 52t133.5 39t185 19q477 0 477 -419q0 -101 -20 -177t-73 -153.5t-145.5 -152t-236.5 -160.5h500v-281h-905v303q292 216 396.5 333.5t104.5 237.5q0 94 -35 131t-114 37q-73 0 -134.5 -19t-140.5 -58z" />
<glyph unicode="3" d="M72 -66l59 277q150 -39 297 -39q118 0 161.5 44t43.5 144q0 86 -43 124t-150 38h-135v273h133q96 0 135 31t39 106q0 68 -35 95.5t-133 27.5q-130 0 -262 -56l-73 258q180 86 417 86q213 0 331 -92t118 -276q0 -122 -47 -199.5t-152 -113.5q123 -39 182.5 -124t59.5 -206 q0 -102 -29 -184.5t-90 -147.5t-165.5 -101t-246.5 -36q-222 0 -415 71z" />
<glyph unicode="4" d="M51 172v305l293 840h354l-299 -858h236v459l340 53v-512h106v-287h-106v-283h-340v283h-584z" />
<glyph unicode="5" d="M76 -57l67 276q145 -51 271 -51q130 0 182.5 41.5t52.5 152.5q0 99 -51 136t-188 37q-125 0 -258 -39l57 821h752v-297h-455l-17 -211q46 8 103 8q121 0 218.5 -48t158.5 -147.5t61 -236.5q0 -257 -132.5 -389.5t-430.5 -132.5q-205 0 -391 80z" />
<glyph unicode="6" d="M57 575q0 395 191 626t600 296l70 -260q-49 -16 -77.5 -25.5t-68.5 -24.5t-64.5 -27t-56 -29.5t-51.5 -34t-43 -39.5t-39 -48.5t-31 -57t-26 -68.5q84 51 201 51q193 0 302 -115t109 -344q0 -239 -132 -370.5t-361 -131.5q-242 0 -382.5 152t-140.5 450zM422 526 q0 -155 33 -216.5t125 -61.5q65 0 102 52t37 163q0 110 -34.5 156.5t-117.5 46.5q-78 0 -143 -50q-2 -29 -2 -90z" />
<glyph unicode="7" d="M104 1004v311h916v-330q-40 -39 -88.5 -106t-107 -175.5t-106.5 -232.5t-84 -288t-44 -330l-352 51q17 198 64 378t112 315.5t131.5 234.5t138.5 172h-580z" />
<glyph unicode="8" d="M47 387q0 233 225 324q-102 54 -142 137t-40 209q0 132 65 223t172 132.5t248 41.5q214 0 346 -103t132 -290q0 -216 -211 -297q131 -60 183 -145.5t52 -210.5q0 -210 -133.5 -322.5t-390.5 -112.5q-119 0 -211 25.5t-146.5 65t-89 96t-47 111t-12.5 116.5zM381 403 q0 -95 42 -132.5t126 -37.5q166 0 166 154q0 70 -32.5 114t-131.5 77l-68 18q-102 -64 -102 -193zM436 1063q0 -35 6.5 -61t32 -56.5t70.5 -50.5l45 -21q129 59 129 189q0 65 -38 99t-108 34q-137 0 -137 -133z" />
<glyph unicode="9" d="M53 842q0 238 132.5 369.5t361.5 131.5q243 0 382.5 -146.5t139.5 -442.5q0 -410 -190 -639t-609 -295l-69 260q71 23 112 37.5t94.5 38t86 46.5t67 56t58 75.5t40.5 96.5q-79 -47 -194 -47q-193 0 -302.5 115t-109.5 344zM408 854q0 -111 34 -157t117 -46q79 0 143 47 q0 16 1.5 50t1.5 53q0 147 -33.5 207.5t-124.5 60.5q-65 0 -102 -52t-37 -163z" />
<glyph unicode=":" horiz-adv-x="552" d="M63 178q0 82 60 141.5t143 59.5t144 -59.5t61 -141.5q0 -84 -60.5 -144.5t-144.5 -60.5q-83 0 -143 60t-60 145zM63 727q0 82 60 141.5t143 59.5t144 -59.5t61 -141.5q0 -84 -60.5 -144.5t-144.5 -60.5q-83 0 -143 60t-60 145z" />
<glyph unicode=";" horiz-adv-x="552" d="M63 190q0 81 54 135t133 54q101 0 164 -69t63 -185q0 -348 -358 -422l-45 162q73 24 107.5 54t37.5 75q-68 15 -112 64t-44 132zM63 727q0 82 60 141.5t143 59.5t144 -59.5t61 -141.5q0 -84 -60.5 -144.5t-144.5 -60.5q-83 0 -143 60t-60 145z" />
<glyph unicode="&#x3c;" d="M176 530v191l602 446l185 -254l-404 -290l404 -295l-185 -246z" />
<glyph unicode="=" d="M86 219v324h952v-324h-952zM86 711v323h952v-323h-952z" />
<glyph unicode="&#x3e;" d="M164 336l403 291l-403 295l184 245l602 -448v-191l-602 -446z" />
<glyph unicode="?" horiz-adv-x="931" d="M55 1329q84 63 172 94t209 31q93 0 168 -20t134.5 -62.5t92.5 -117.5t33 -177q0 -129 -53.5 -216.5t-163.5 -147.5q-61 -33 -81.5 -71.5t-20.5 -117.5v-104h-287v162q0 132 29.5 195.5t105.5 109.5q71 43 94 78.5t23 85.5q0 59 -29.5 85.5t-93.5 26.5q-116 0 -192 -67z M217 162q0 78 55.5 134t133.5 56t133 -56t55 -134t-55 -133.5t-133 -55.5t-133.5 55.5t-55.5 133.5z" />
<glyph unicode="@" horiz-adv-x="1787" d="M61 418q0 268 111.5 481t311 332t452.5 119q177 0 322.5 -50t249.5 -144t161 -236t57 -320q0 -138 -28.5 -248t-75 -179.5t-110 -115t-128.5 -64t-135 -18.5q-88 0 -146.5 24t-89 63t-52.5 102q-124 -160 -271 -160q-302 0 -196 518q24 119 60.5 200.5t84.5 125.5 t99.5 62t117.5 18q25 0 47.5 -4.5t37 -9t32 -16.5t23.5 -16.5t22.5 -19.5t17.5 -16l13 63h288l-131 -633q-20 -98 64 -98q29 0 56 11t55.5 40.5t49.5 75.5t34.5 122t13.5 173q0 281 -135 408t-424 127q-275 0 -434.5 -191t-159.5 -526q0 -140 28 -245.5t76 -172t120 -107.5 t151 -57t178 -16q148 0 297 55l71 -201q-176 -75 -368 -75q-139 0 -260 30t-224.5 94.5t-177 159t-115 231.5t-41.5 304zM768.5 322q-2.5 -59 10.5 -81t42 -22q12 0 23 3.5t23 12.5t18 14t19.5 19.5t17.5 18.5l77 397q-2 2 -7.5 6.5t-8.5 7.5t-9.5 7t-12.5 6t-14.5 4 t-18.5 2q-56 0 -79 -41t-56 -193q-22 -102 -24.5 -161z" />
<glyph unicode="A" horiz-adv-x="1169" d="M23 0l393 1427h362l369 -1427h-377l-49 238h-281l-53 -238h-364zM498 500h170l-50 237q-25 124 -30 248h-2q-11 -141 -35 -248z" />
<glyph unicode="B" horiz-adv-x="1179" d="M123 0v1427h586q77 0 139.5 -19t112 -59.5t77 -111.5t27.5 -168q0 -123 -41.5 -194.5t-146.5 -112.5q106 -22 171.5 -106t65.5 -228q0 -223 -104 -325.5t-340 -102.5h-547zM471 291h129q65 0 97 37t32 118q0 72 -29 110t-104 38h-125v-303zM471 872h117q121 0 121 140 q0 125 -123 125h-115v-265z" />
<glyph unicode="C" horiz-adv-x="1095" d="M82 713q0 174 27 304t74 213t121 133.5t158.5 70.5t194.5 20q123 0 221.5 -29.5t157.5 -78.5l-135 -277q-97 84 -221 84q-53 0 -85 -9t-57.5 -32.5t-37.5 -72.5t-17.5 -120t-5.5 -184q0 -146 13 -239.5t41 -140.5t62 -63t87 -16q138 0 227 99l152 -260 q-70 -67 -162 -104.5t-231 -37.5q-301 0 -442.5 173.5t-141.5 566.5z" />
<glyph unicode="D" horiz-adv-x="1255" d="M123 0v1427h500q136 0 235.5 -36t171.5 -116t108 -213.5t36 -322.5q0 -136 -15.5 -244.5t-53.5 -203t-98.5 -157.5t-154.5 -98.5t-217 -35.5h-512zM481 305h127q50 0 79.5 14.5t53.5 60.5t33.5 135.5t9.5 236.5q0 122 -11 198t-37 114t-57 50t-81 12h-117v-821z" />
<glyph unicode="E" horiz-adv-x="991" d="M123 0v1427h778v-301h-420v-239h330v-291h-330v-291h457v-305h-815z" />
<glyph unicode="F" horiz-adv-x="937" d="M123 0v1427h766v-301h-410v-239h316v-291h-314v-596h-358z" />
<glyph unicode="G" horiz-adv-x="1243" d="M82 713q0 172 26.5 300.5t74.5 212t122.5 135t162 72.5t200.5 21q143 0 246.5 -37t201.5 -117l-194 -256q-67 57 -116.5 83t-117.5 26q-51 0 -83.5 -8.5t-59.5 -33t-41 -72t-21.5 -121t-7.5 -183.5q0 -148 11 -239t38 -139.5t62.5 -64.5t95.5 -16q67 0 111 27v219h-140 v291h494v-813h-256l-35 80q-94 -107 -242 -107q-260 0 -396 176.5t-136 563.5z" />
<glyph unicode="H" horiz-adv-x="1228" d="M123 0v1427h358v-524h267v524h358v-1427h-358v600h-267v-600h-358z" />
<glyph unicode="I" horiz-adv-x="802" d="M82 0v197l137 34v965l-137 35v196h639v-196l-137 -35v-965l137 -34v-197h-639z" />
<glyph unicode="J" horiz-adv-x="632" d="M-29 -158q63 47 92 76t50 76t25.5 101t4.5 157v1175h359v-1331q0 -399 -402 -499z" />
<glyph unicode="K" horiz-adv-x="1185" d="M123 0v1427h358v-614l279 614h379l-336 -653l383 -774h-406l-299 719v-719h-358z" />
<glyph unicode="L" horiz-adv-x="966" d="M123 0v1427h352v-1124h416v-303h-768z" />
<glyph unicode="M" horiz-adv-x="1517" d="M123 0v1427h463l125 -565q25 -102 43 -332h2q17 217 41 332l104 565h494v-1427h-340v528q0 307 22 582h-2q-31 -251 -94 -524l-82 -361h-324l-81 344q-50 206 -93 541h-2q29 -317 29 -588v-522h-305z" />
<glyph unicode="N" horiz-adv-x="1239" d="M123 0v1427h332l254 -555q54 -115 116 -321h2q-32 269 -32 369v507h321v-1427h-354l-240 559q-57 136 -116 318h-3q1 -4 7.5 -44.5t11 -74.5t10.5 -84t9 -104t3 -105v-465h-321z" />
<glyph unicode="O" horiz-adv-x="1327" d="M82 713q0 265 67 430t194 238t325 73q197 0 322.5 -73.5t190 -237.5t64.5 -430q0 -265 -65 -429.5t-191 -237.5t-323 -73q-297 0 -440.5 174.5t-143.5 565.5zM471 719q0 -187 17 -282.5t57.5 -134t118.5 -38.5t118 39.5t57 135.5t17 284q0 137 -8.5 219.5t-31 134t-58 70 t-94.5 18.5q-78 0 -118.5 -38.5t-57.5 -132t-17 -275.5z" />
<glyph unicode="P" horiz-adv-x="1155" d="M123 0v1427h418q112 0 195 -11.5t154 -41t115 -79.5t68.5 -127.5t24.5 -184.5q0 -92 -12.5 -160t-47 -130t-93 -101t-153 -61.5t-225.5 -22.5h-86v-508h-358zM481 795h90q87 0 123.5 33t36.5 128q0 104 -33.5 139t-105.5 35h-111v-335z" />
<glyph unicode="Q" horiz-adv-x="1327" d="M82 713q0 265 67 430t194 238t325 73q197 0 322.5 -73.5t190 -237.5t64.5 -430q0 -254 -54.5 -402t-205.5 -227l279 -92l-131 -279l-656 264q-142 58 -226.5 145.5t-126.5 231t-42 359.5zM471 719q0 -187 17 -285t57.5 -140t118.5 -42t118.5 42.5t57 141t16.5 287.5 q0 137 -8.5 219.5t-31 134t-58 70t-94.5 18.5q-78 0 -118.5 -38.5t-57.5 -132t-17 -275.5z" />
<glyph unicode="R" horiz-adv-x="1206" d="M123 0v1427h467q150 0 254 -27t163.5 -81.5t85 -127.5t25.5 -175q0 -89 -16 -153.5t-49.5 -106.5t-76.5 -67t-104 -42q71 -22 115 -89t74 -179l98 -379h-381l-96 410q-24 99 -54 129t-114 30h-33v-569h-358zM481 829h131q71 0 99 37.5t28 124.5q0 76 -30.5 107.5 t-98.5 31.5h-129v-301z" />
<glyph unicode="S" d="M57 98l111 281q70 -48 157.5 -76.5t168.5 -28.5q90 0 136 38t46 104q0 62 -33.5 89t-124.5 52q-79 23 -134 45t-109.5 58.5t-87 82.5t-52.5 114.5t-20 156.5q0 222 128 331t343 109q131 0 222.5 -23t182.5 -73l-123 -264q-65 36 -119 49.5t-131 13.5q-69 0 -104 -29.5 t-35 -80.5q0 -59 26.5 -88t108.5 -52q59 -16 98 -28t89.5 -33t83 -43.5t67 -57t54 -75.5t32.5 -98t13 -126q0 -233 -122.5 -353t-400.5 -120q-140 0 -268 36.5t-203 88.5z" />
<glyph unicode="T" horiz-adv-x="1060" d="M59 1124v303h942v-303h-294v-1124h-353v1124h-295z" />
<glyph unicode="U" horiz-adv-x="1228" d="M106 498v929h359v-997q0 -83 26.5 -118.5t106.5 -35.5q99 0 150 39v1112h358v-1427h-254l-39 90q-48 -57 -116 -87t-175 -30q-210 0 -313 125t-103 400z" />
<glyph unicode="V" horiz-adv-x="1212" d="M20 1427h383l148 -641q35 -153 47 -264h2q21 147 51 260l172 645h369l-438 -1427h-314z" />
<glyph unicode="W" horiz-adv-x="1624" d="M45 1427h369l65 -380q37 -210 51 -588h2q13 250 70 549l78 419h285l77 -415q46 -243 72 -551h2q17 405 41 588l57 378h365l-270 -1427h-355l-102 551q-22 127 -37 358h-2q-8 -192 -37 -358l-102 -551h-363z" />
<glyph unicode="X" horiz-adv-x="1191" d="M10 0l393 743l-350 684h418l141 -360l133 360h400l-350 -665l387 -762h-418l-180 436l-174 -436h-400z" />
<glyph unicode="Y" horiz-adv-x="1150" d="M18 1427h390l98 -253q58 -153 74 -265q28 150 71 258l103 260h379l-388 -798v-629h-358v621z" />
<glyph unicode="Z" horiz-adv-x="1062" d="M74 0v250l497 876h-444v301h860v-256l-495 -866h495v-305h-913z" />
<glyph unicode="[" horiz-adv-x="716" d="M135 -319v1818h488v-252h-172v-1315h172v-251h-488z" />
<glyph unicode="\" horiz-adv-x="780" d="M4 1575h260l512 -1899h-260z" />
<glyph unicode="]" horiz-adv-x="716" d="M92 -68h172v1315h-172v252h490v-1818h-490v251z" />
<glyph unicode="^" horiz-adv-x="1175" d="M111 823l329 627h295l330 -627h-358l-121 260l-125 -260h-350z" />
<glyph unicode="_" horiz-adv-x="802" d="M8 -92h787v-246h-787v246z" />
<glyph unicode="`" horiz-adv-x="1048" d="M219 1354l156 266l401 -303l-106 -180z" />
<glyph unicode="a" horiz-adv-x="980" d="M49 317q0 182 108.5 262t338.5 80h55v21q0 76 -20.5 105.5t-81.5 29.5q-117 0 -263 -90l-120 223q187 135 415 135q219 0 313.5 -80t94.5 -272v-731h-266q-4 0 -27 74q-97 -101 -236 -101q-311 0 -311 344zM379 322q0 -68 18.5 -95.5t65.5 -27.5t88 26v234 q-107 -1 -139.5 -31t-32.5 -106z" />
<glyph unicode="b" horiz-adv-x="1069" d="M98 0v1505h338v-508q31 29 92.5 57.5t130.5 28.5q90 0 152.5 -25.5t108 -85t67 -162t21.5 -253.5q0 -138 -15 -238.5t-43 -167t-72.5 -106.5t-98.5 -56t-126 -16q-78 0 -143.5 34.5t-110.5 86.5l-22 -94h-279zM436 276q40 -36 96 -36q73 0 93 57.5t20 243.5 q0 73 -2 116.5t-7.5 78t-17.5 50.5t-29.5 23.5t-45.5 7.5q-62 0 -107 -35v-506z" />
<glyph unicode="c" horiz-adv-x="876" d="M61 535q0 286 109.5 417t337.5 131q206 0 340 -125l-156 -215q-65 72 -145 72q-47 0 -70.5 -18t-36 -77.5t-12.5 -178.5q0 -123 11 -185.5t37 -88t77 -25.5q56 0 90.5 16.5t75.5 54.5l127 -225q-132 -115 -318 -115q-242 0 -354.5 136t-112.5 426z" />
<glyph unicode="d" horiz-adv-x="1069" d="M61 516q0 137 14 236t40.5 163t70 101.5t95.5 52t125 14.5q130 0 227 -88v510h338v-1505h-279l-22 94q-63 -64 -116.5 -92.5t-127.5 -28.5q-71 0 -127 17t-101.5 56.5t-75 102t-45.5 154.5t-16 213zM424 516q0 -73 2 -116.5t7.5 -78t17.5 -50.5t29.5 -23.5t45.5 -7.5 q64 0 107 34v506q-42 37 -96 37q-73 0 -93 -57.5t-20 -243.5z" />
<glyph unicode="e" horiz-adv-x="1036" d="M61 535q0 289 114.5 418.5t340.5 129.5q129 0 218 -34.5t142.5 -108t77 -179.5t23.5 -257v-88h-549q9 -111 45.5 -147t122.5 -36q66 0 118 23.5t107 65.5l137 -222q-54 -54 -149.5 -90.5t-202.5 -36.5q-289 0 -417 132t-128 430zM424 639h213q-1 48 -3.5 75t-8.5 55.5 t-17 42t-30 22t-48 8.5q-60 0 -80.5 -40.5t-25.5 -162.5z" />
<glyph unicode="f" horiz-adv-x="669" d="M31 805v252h102v106q0 79 12 140t35.5 99.5t51 64t67 38t74 17t80.5 4.5q139 0 249 -47l-71 -226q-38 19 -90 19q-70 0 -70 -76v-139h168v-252h-168v-805h-338v805h-102z" />
<glyph unicode="g" horiz-adv-x="1071" d="M49 -135q0 127 135 188q-94 63 -94 191q0 144 119 207q-125 82 -125 280q0 173 102.5 262.5t327.5 89.5q93 0 176 -26h322v-168l-88 -39q28 -70 28 -148q0 -170 -97.5 -245.5t-334.5 -75.5q-38 0 -100 4q-21 -28 -21 -57q0 -21 17.5 -35t48.5 -14h203q77 0 140.5 -16.5 t114 -51.5t79 -95t28.5 -141q0 -195 -128.5 -289t-407.5 -94q-217 0 -331 71t-114 202zM336 -76q0 -56 34.5 -86.5t137.5 -30.5q87 0 137.5 32t50.5 79q0 56 -37.5 74t-148.5 18h-162q-12 -46 -12 -86zM408 721q0 -68 21.5 -100.5t92.5 -32.5q73 0 97 30t24 97q0 36 -3 57 t-14.5 41.5t-36.5 29.5t-65 9q-69 0 -92.5 -31.5t-23.5 -99.5z" />
<glyph unicode="h" horiz-adv-x="1060" d="M98 0v1505h338v-508q102 86 252 86q147 0 214 -69t67 -238v-776h-338v707q0 65 -22.5 87.5t-63.5 22.5q-40 0 -60 -7t-49 -28v-782h-338z" />
<glyph unicode="i" horiz-adv-x="595" d="M49 834v223h443v-1057h-338v805zM127 1339q0 81 57.5 139t137.5 58q81 0 138.5 -57.5t57.5 -137.5q0 -81 -57 -138.5t-137 -57.5q-82 0 -139.5 57t-57.5 137z" />
<glyph unicode="j" horiz-adv-x="595" d="M25 -180q81 31 105 68.5t24 142.5v774l-105 29v223h443v-1002q0 -213 -82.5 -327t-292.5 -146zM127 1339q0 81 57.5 139t137.5 58q81 0 138.5 -57.5t57.5 -137.5q0 -81 -57 -138.5t-137 -57.5q-82 0 -139.5 57t-57.5 137z" />
<glyph unicode="k" horiz-adv-x="1044" d="M98 0v1505h338v-887l178 439h375l-227 -426l285 -631h-359l-252 580v-580h-338z" />
<glyph unicode="l" horiz-adv-x="593" d="M96 340v1165h338v-1183q0 -68 13 -82.5t69 -14.5h19l30 -215q-96 -35 -184 -35q-76 0 -128 15.5t-83 41.5t-47.5 74.5t-21.5 100t-5 133.5z" />
<glyph unicode="m" horiz-adv-x="1536" d="M98 0v1057h279l20 -84q62 54 127 82t150 28q163 0 227 -110q62 54 127 82t150 28q136 0 201 -67.5t65 -231.5v-784h-338v715q0 62 -18.5 82t-53.5 20q-48 0 -94 -35v-782h-338v715q0 62 -18.5 82t-53.5 20q-48 0 -94 -35v-782h-338z" />
<glyph unicode="n" horiz-adv-x="1060" d="M98 0v1057h279l22 -90q60 57 126.5 86.5t162.5 29.5q147 0 214 -69t67 -238v-776h-338v707q0 65 -22.5 87.5t-63.5 22.5q-40 0 -60 -7t-49 -28v-782h-338z" />
<glyph unicode="o" horiz-adv-x="1062" d="M61 535q0 290 117.5 419t353.5 129q234 0 351.5 -133.5t117.5 -425.5q0 -290 -118 -420.5t-353 -130.5q-234 0 -351.5 135t-117.5 427zM424 524q0 -80 2 -127.5t8 -86t18.5 -56.5t31 -26.5t48.5 -8.5q70 0 88.5 61t18.5 255q0 84 -2.5 132t-8 85.5t-19 53.5t-31 23 t-48.5 7q-30 0 -48 -8.5t-30.5 -25.5t-18 -57t-7.5 -88t-2 -133z" />
<glyph unicode="p" horiz-adv-x="1069" d="M98 -389v1446h279l22 -94q60 61 122 90.5t138 29.5q90 0 152.5 -25.5t108 -85t67 -162t21.5 -253.5q0 -172 -20.5 -286.5t-65.5 -179.5t-106 -91.5t-152 -26.5q-131 0 -228 88v-450h-338zM436 276q40 -36 96 -36q73 0 93 57.5t20 243.5q0 73 -2 116.5t-7.5 78t-17.5 50.5 t-29.5 23.5t-45.5 7.5q-62 0 -107 -35v-506z" />
<glyph unicode="q" horiz-adv-x="1069" d="M61 516q0 136 14.5 235.5t40.5 163t68 101.5t90.5 52.5t114.5 14.5q176 0 281 -120l22 94h279v-1446h-338v450q-74 -88 -207 -88q-71 0 -127 17t-101.5 56.5t-75 102t-45.5 154.5t-16 213zM424 516q0 -73 2 -116.5t7.5 -78t17.5 -50.5t29.5 -23.5t45.5 -7.5q64 0 107 34 v506q-42 37 -96 37q-73 0 -93 -57.5t-20 -243.5z" />
<glyph unicode="r" horiz-adv-x="751" d="M98 0v1057h279l24 -109q42 62 103.5 93.5t132.5 31.5q56 0 102 -12l-63 -332q-50 37 -125 37q-67 0 -115 -25v-741h-338z" />
<glyph unicode="s" horiz-adv-x="872" d="M20 63l99 256q111 -69 235 -69q62 0 92.5 15t30.5 52q0 39 -30.5 56.5t-131.5 48.5q-83 26 -134.5 64t-80 102.5t-28.5 159.5q0 171 97.5 253t272.5 82q110 0 184.5 -15.5t153.5 -49.5l-75 -252q-94 49 -222 49q-77 0 -77 -63q0 -20 4 -31.5t23 -22t36.5 -15.5t65.5 -19 q68 -19 114.5 -40.5t87 -58t60.5 -93.5t20 -136q0 -172 -96 -267.5t-295 -95.5q-234 0 -406 90z" />
<glyph unicode="t" horiz-adv-x="700" d="M33 805v252h102v252l338 53v-305h184v-252h-184v-461q0 -72 17 -94.5t57 -22.5q14 0 28.5 2.5t23 5t19 7t11.5 4.5l41 -223q-38 -17 -54 -23.5t-63.5 -16.5t-99.5 -10q-157 0 -237.5 63.5t-80.5 217.5v551h-102z" />
<glyph unicode="u" horiz-adv-x="1060" d="M92 293v764h338v-707q0 -65 22.5 -87.5t63.5 -22.5q38 0 60.5 9t48.5 30v778h338v-1057h-279l-22 94q-46 -46 -70.5 -66t-75.5 -37.5t-121 -17.5q-140 0 -221.5 80.5t-81.5 239.5z" />
<glyph unicode="v" horiz-adv-x="1017" d="M8 1057h352l86 -301q11 -40 72 -318h4q16 159 66 340l76 279h346l-346 -1057h-291z" />
<glyph unicode="w" horiz-adv-x="1447" d="M12 1057h336l60 -314q20 -102 41 -356h2q11 148 51 330l73 340h302l84 -377q21 -95 40 -287h3q3 29 7.5 107t11 137t17.5 121l54 299h342l-291 -1057h-301l-82 395q-29 134 -41 275h-2q-19 -178 -43 -285l-86 -385h-297z" />
<glyph unicode="x" horiz-adv-x="1060" d="M14 0l316 559l-279 498h391l50 -115q28 -66 61 -194h2q2 24 16.5 83t32.5 107l43 119h381l-291 -488l310 -569h-392l-71 166q-39 91 -58 178h-4q-21 -101 -57 -182l-70 -162h-381z" />
<glyph unicode="y" horiz-adv-x="1013" d="M8 1057h352l109 -508q34 -124 43 -227h2q18 147 39 235l98 500h355l-308 -1059q-27 -94 -57 -157.5t-69.5 -110t-97 -74.5t-129 -45t-177.5 -27l-66 275q98 12 153.5 28t87.5 41.5t60 71.5h-79z" />
<glyph unicode="z" horiz-adv-x="868" d="M57 0v213l369 580h-334v264h721v-234l-354 -555h354v-268h-756z" />
<glyph unicode="{" horiz-adv-x="716" d="M49 455v274q86 0 115 23t29 88v334q0 175 79 250t224 75h153v-252h-45q-59 0 -76.5 -21t-17.5 -87v-367q0 -102 -29 -136.5t-112 -43.5v-4q43 -5 67 -12.5t42.5 -26t25 -50.5t6.5 -85v-373q0 -66 17.5 -87.5t76.5 -21.5h45v-251h-153q-136 0 -219.5 77.5t-83.5 249.5v332 q0 73 -29 94t-115 21z" />
<glyph unicode="|" horiz-adv-x="507" d="M158 -324v1899h192v-1899h-192z" />
<glyph unicode="}" horiz-adv-x="716" d="M66 -68h45q59 0 76.5 21.5t17.5 87.5v373q0 53 6.5 85t25 50.5t42.5 26t67 12.5v4q-83 9 -112 43.5t-29 136.5v367q0 66 -17.5 87t-76.5 21h-45v252h153q145 0 224 -75t79 -250v-334q0 -65 29 -88t115 -23v-274q-86 0 -115 -21t-29 -94v-332q0 -172 -83.5 -249.5 t-219.5 -77.5h-153v251z" />
<glyph unicode="~" horiz-adv-x="1134" d="M82 567q59 144 140 224.5t179 80.5q68 0 127.5 -21.5t105.5 -43t81 -21.5q60 0 112 93l226 -121q-59 -143 -140.5 -223t-179.5 -80q-68 0 -127.5 21.5t-105 43t-80.5 21.5q-60 0 -113 -95z" />
<glyph unicode="&#xa1;" horiz-adv-x="626" d="M111 -371l63 1008h254l76 -1008h-393zM113 895q0 78 55 133t133 55t133 -55t55 -133t-55 -134t-133 -56t-133 56t-55 134z" />
<glyph unicode="&#xa2;" d="M158 535q0 242 80.5 372t248.5 164v242h283v-244q119 -25 215 -111l-156 -215q-65 72 -161 72q-39 0 -63 -9.5t-44 -37.5t-28.5 -83.5t-8.5 -143.5q0 -121 14.5 -185t45.5 -89t90 -25q60 0 101.5 17.5t80.5 53.5l127 -225q-86 -77 -213 -102v-254h-283v258 q-172 36 -250.5 168.5t-78.5 376.5z" />
<glyph unicode="&#xa3;" d="M131 526v248h98q-32 87 -32 176q0 189 113.5 291t332.5 102q145 0 245 -31t179 -89l-131 -250q-64 39 -116 54t-124 15q-60 0 -93.5 -34.5t-33.5 -96.5q0 -47 23 -137h270v-248h-233q-10 -151 -137 -245h546v-281h-905v303q72 38 110.5 100t43.5 123h-156z" />
<glyph unicode="&#xa4;" d="M12 254l158 192q-25 92 -25 203q0 99 21 178l-154 189l226 215l120 -135q86 47 209 47q118 0 207 -47l119 135l219 -205q-147 -188 -149 -188q24 -86 24 -199q0 -103 -22 -193l147 -186l-229 -215l-119 139q-87 -41 -199 -41q-121 0 -207 50l-127 -148zM467 639 q0 -133 19 -188.5t81 -55.5q61 0 79 58.5t18 195.5q0 136 -18.5 188t-80.5 52t-80 -54.5t-18 -195.5z" />
<glyph unicode="&#xa5;" d="M37 1317h373l94 -254q51 -140 74 -275q24 143 67 275l82 254h363l-232 -510h186v-217h-284l-23 -51v-62h307v-217h-307v-260h-348v260h-307v217h307v53l-27 60h-280v217h182z" />
<glyph unicode="&#xa6;" horiz-adv-x="507" d="M158 -324v830h192v-830h-192zM158 768v807h192v-807h-192z" />
<glyph unicode="&#xa7;" d="M102 467q0 187 148 264q-78 88 -78 240q0 189 109 280.5t299 91.5q117 0 198 -18t162 -57l-92 -258q-102 55 -232 55q-100 0 -100 -80q0 -43 29 -63t114 -43q77 -21 127.5 -39.5t99.5 -46.5t77 -62.5t44.5 -85.5t16.5 -117q0 -178 -150 -260q93 -90 93 -239 q0 -396 -430 -396q-130 0 -235 31t-173 78l113 254q127 -84 235 -84q77 0 110.5 21t33.5 69q0 43 -27.5 60t-123.5 46q-27 8 -42 13q-91 28 -148.5 55.5t-99.5 67.5t-60 93.5t-18 129.5zM406 526q0 -13 2.5 -23t8.5 -19t12.5 -15.5t20.5 -14t25 -12.5t32.5 -12t38.5 -12.5 t46.5 -15t52.5 -17.5q68 20 68 78q0 48 -32 68t-150 56q-34 11 -54 17q-71 -17 -71 -78z" />
<glyph unicode="&#xa8;" horiz-adv-x="1048" d="M137 1325q0 72 49 122t117 50q71 0 122.5 -50.5t51.5 -121.5q0 -70 -50 -119t-118 -49q-70 0 -121 49t-51 119zM571 1325q0 72 47.5 122t116.5 50q72 0 123 -50t51 -122q0 -70 -49.5 -119t-118.5 -49q-71 0 -120.5 49t-49.5 119z" />
<glyph unicode="&#xa9;" horiz-adv-x="1474" d="M88 727q0 356 165.5 559t483.5 203q317 0 483 -203t166 -559t-166 -559t-483 -203q-318 0 -483.5 203t-165.5 559zM240 727q0 -629 497 -629q108 0 192.5 29.5t141.5 82.5t94 132t53.5 173.5t16.5 211.5q0 147 -26.5 259.5t-84 197t-155 128.5t-232.5 44 q-497 0 -497 -629zM391 713q0 136 25.5 230t75.5 146.5t114.5 74.5t153.5 22q85 0 164 -29.5t123 -85.5l-142 -186q-2 1 -10 8.5t-11.5 10.5t-12.5 9.5t-16 9t-17.5 6.5t-23 5.5t-26.5 1.5q-59 0 -77.5 -39t-18.5 -160q0 -107 10 -157t30.5 -65t66.5 -15q55 0 104 53 l152 -170q-54 -64 -121 -97.5t-162 -33.5q-202 0 -291.5 107.5t-89.5 353.5z" />
<glyph unicode="&#xaa;" horiz-adv-x="1024" d="M115 653q0 163 98.5 236.5t304.5 73.5h51v18q0 69 -18.5 95t-73.5 26q-102 0 -239 -80l-109 207q165 114 377 114q194 0 283.5 -72.5t89.5 -244.5v-657h-246q-3 0 -25 65q-83 -90 -207 -90q-286 0 -286 309zM422 657q0 -63 13 -86.5t54 -23.5t80 24v211q-50 -1 -80 -7.5 t-44.5 -24t-18.5 -37.5t-4 -56z" />
<glyph unicode="&#xab;" horiz-adv-x="1191" d="M51 522l332 508l223 -160l-223 -348l223 -348l-223 -158zM555 522l332 508l223 -160l-223 -348l223 -348l-223 -158z" />
<glyph unicode="&#xac;" d="M109 522v324h882v-610h-336v286h-546z" />
<glyph unicode="&#xad;" horiz-adv-x="677" d="M88 403v334h502v-334h-502z" />
<glyph unicode="&#xae;" horiz-adv-x="1097" d="M72 922q0 246 132.5 395t344.5 149t344.5 -149t132.5 -395t-132.5 -394.5t-344.5 -148.5t-344.5 148.5t-132.5 394.5zM205 922q0 -211 86.5 -320.5t257.5 -109.5q170 0 257 110t87 320t-87.5 321t-256.5 111q-170 0 -257 -110.5t-87 -321.5zM342 631v594h205 q227 0 227 -172q0 -131 -98 -152q34 -13 51 -39.5t29 -75.5l35 -155h-177l-32 172q-6 33 -21.5 46t-50.5 13v-231h-168zM510 981h43q24 0 33.5 13t9.5 42q0 49 -43 49h-43v-104z" />
<glyph unicode="&#xaf;" horiz-adv-x="1048" d="M233 1217v256h582v-256h-582z" />
<glyph unicode="&#xb0;" horiz-adv-x="819" d="M70 1098q0 170 94.5 263t249.5 93q156 0 246 -90t90 -266q0 -178 -93.5 -277.5t-250.5 -99.5q-158 0 -247 99t-89 278zM315 1094q0 -96 22 -138.5t73 -42.5t72.5 43.5t21.5 141.5q0 90 -22 129t-72 39q-49 0 -72 -39t-23 -133z" />
<glyph unicode="&#xb1;" d="M66 0v317h995v-317h-995zM66 707v317h329v270h336v-270h330v-317h-330v-271h-336v271h-329z" />
<glyph unicode="&#xb2;" horiz-adv-x="778" d="M49 1272q140 69 311 69q162 0 248 -80t86 -223q0 -65 -22 -120t-67.5 -103t-99.5 -87t-134 -85h340v-217h-648v233q184 127 259 201t75 146q0 56 -25.5 77t-70.5 21q-88 0 -182 -43z" />
<glyph unicode="&#xb3;" horiz-adv-x="778" d="M39 391l51 205q112 -33 207 -33q67 0 93 23.5t26 75.5q0 48 -24 70t-83 22h-108v213h100q54 0 79.5 17t25.5 56q0 41 -24 59.5t-85 18.5q-84 0 -184 -41l-54 203q135 61 308 61q148 0 234.5 -64.5t86.5 -191.5q0 -80 -41.5 -139t-114.5 -82q90 -21 137.5 -82t47.5 -147 q0 -141 -86.5 -222t-261.5 -81q-198 0 -330 59z" />
<glyph unicode="&#xb4;" horiz-adv-x="1048" d="M272 1317l402 303l155 -266l-450 -217z" />
<glyph unicode="&#xb6;" horiz-adv-x="1226" d="M80 1065q0 93 34 163.5t96.5 113.5t145 64t185.5 21h557v-1605h-228v1421h-135v-1421h-227v876h-4q-214 0 -319 96t-105 271z" />
<glyph unicode="&#xb7;" horiz-adv-x="552" d="M72 649q0 82 59.5 141.5t142.5 59.5t144 -59.5t61 -141.5q0 -84 -60.5 -144.5t-144.5 -60.5q-83 0 -142.5 60t-59.5 145z" />
<glyph unicode="&#xb8;" horiz-adv-x="1048" d="M301 -424l45 137q50 -26 105 -26q42 0 59.5 12.5t17.5 44.5q0 33 -18 44t-70 11q-28 0 -63 -10l51 211h178l-26 -88q70 -12 106.5 -56.5t36.5 -111.5q0 -96 -56 -151.5t-192 -55.5q-98 0 -174 39z" />
<glyph unicode="&#xb9;" horiz-adv-x="778" d="M74 1083l276 242h191v-694h143v-205h-571v205h155v348l-127 -55z" />
<glyph unicode="&#xba;" horiz-adv-x="1024" d="M82 850q0 252 112 372.5t318 120.5q204 0 316 -124.5t112 -378.5q0 -252 -112.5 -374t-317.5 -122q-204 0 -316 125.5t-112 380.5zM414 840q0 -115 8 -171t28.5 -78t61.5 -22q58 0 76 56t18 225q0 119 -8.5 174t-27.5 73.5t-60 18.5q-42 0 -61 -21t-27 -77t-8 -178z" />
<glyph unicode="&#xbb;" horiz-adv-x="1191" d="M82 174l223 348l-223 348l223 160l332 -508l-332 -506zM586 174l223 348l-223 348l223 160l332 -508l-332 -506z" />
<glyph unicode="&#xbc;" horiz-adv-x="2048" d="M35 1083l276 242h191v-694h143v-205h-571v205h155v348l-127 -55zM522 0l680 1317h273l-680 -1317h-273zM1200 102v226l217 563h273l-220 -576h168v279l269 39v-318h92v-213h-92v-186h-269v186h-438z" />
<glyph unicode="&#xbd;" horiz-adv-x="2048" d="M41 1083l276 242h191v-694h143v-205h-571v205h156v348l-127 -55zM522 0l680 1317h273l-680 -1317h-273zM1319 846q140 69 311 69q162 0 248 -80t86 -223q0 -65 -22 -120t-68 -103t-100 -86.5t-134 -85.5h340v-217h-647v233q184 127 259 201t75 146q0 56 -25.5 77 t-70.5 21q-88 0 -182 -43z" />
<glyph unicode="&#xbe;" horiz-adv-x="2048" d="M25 391l51 205q112 -33 207 -33q67 0 92.5 23.5t25.5 75.5q0 49 -23.5 70.5t-82.5 21.5h-109v213h101q54 0 79 17t25 56q0 41 -23.5 59.5t-84.5 18.5q-85 0 -185 -41l-53 203q135 61 307 61q148 0 235 -65t87 -191q0 -80 -41.5 -139t-114.5 -82q90 -21 137 -82t47 -147 q0 -141 -86.5 -222t-261.5 -81q-197 0 -329 59zM547 0l680 1317h272l-680 -1317h-272zM1206 102v226l217 563h273l-219 -576h168v279l268 39v-318h80v-213h-80v-186h-268v186h-439z" />
<glyph unicode="&#xbf;" horiz-adv-x="931" d="M68 -20q0 129 53.5 216.5t163.5 147.5q61 34 81.5 72t20.5 116v105h287v-162q0 -132 -29.5 -195.5t-105.5 -109.5q-71 -43 -94 -78.5t-23 -85.5q0 -59 29.5 -85.5t93.5 -26.5q116 0 192 67l140 -233q-84 -63 -172 -94t-209 -31q-93 0 -168 20t-134.5 62.5t-92.5 117.5 t-33 177zM338 895q0 78 55 133t133 55t133.5 -55t55.5 -133t-55.5 -134t-133.5 -56t-133 56t-55 134z" />
<glyph unicode="&#xc0;" horiz-adv-x="1169" d="M23 0l393 1427h362l369 -1427h-377l-49 238h-281l-53 -238h-364zM279 1712l155 266l402 -303l-107 -180zM498 500h170l-50 237q-25 124 -30 248h-2q-11 -141 -35 -248z" />
<glyph unicode="&#xc1;" horiz-adv-x="1169" d="M23 0l393 1427h362l369 -1427h-377l-49 238h-281l-53 -238h-364zM332 1675l401 303l156 -266l-451 -217zM498 500h170l-50 237q-25 124 -30 248h-2q-11 -141 -35 -248z" />
<glyph unicode="&#xc2;" horiz-adv-x="1169" d="M23 0l393 1427h362l369 -1427h-377l-49 238h-281l-53 -238h-364zM240 1638l254 269h184l250 -269l-99 -143l-251 139l-240 -139zM498 500h170l-50 237q-25 124 -30 248h-2q-11 -141 -35 -248z" />
<glyph unicode="&#xc3;" horiz-adv-x="1169" d="M23 0l393 1427h362l369 -1427h-377l-49 238h-281l-53 -238h-364zM201 1632q93 236 254 236q56 0 101 -18t78.5 -36t61.5 -18t49.5 19t45.5 57l176 -115q-93 -235 -254 -235q-56 0 -101 18t-79 35.5t-62 17.5t-49 -18.5t-45 -56.5zM498 500h170l-50 237q-25 124 -30 248 h-2q-11 -141 -35 -248z" />
<glyph unicode="&#xc4;" horiz-adv-x="1169" d="M23 0l393 1427h362l369 -1427h-377l-49 238h-281l-53 -238h-364zM197 1683q0 72 48.5 122t116.5 50q71 0 123 -50.5t52 -121.5q0 -70 -50 -118.5t-118 -48.5q-70 0 -121 48.5t-51 118.5zM498 500h170l-50 237q-25 124 -30 248h-2q-11 -141 -35 -248zM631 1683 q0 72 47.5 122t116.5 50q72 0 123 -50t51 -122q0 -70 -49.5 -118.5t-118.5 -48.5q-71 0 -120.5 48.5t-49.5 118.5z" />
<glyph unicode="&#xc5;" horiz-adv-x="1169" d="M23 0l393 1427h362l369 -1427h-377l-49 238h-281l-53 -238h-364zM348 1745q0 107 65 174.5t171 67.5t170.5 -67.5t64.5 -174.5t-64.5 -174.5t-170.5 -67.5t-171 67.5t-65 174.5zM498 500h170l-50 237q-25 124 -30 248h-2q-11 -141 -35 -248zM514 1745q0 -109 70 -109 q69 0 69 109q0 56 -16 82t-53 26t-53.5 -26.5t-16.5 -81.5z" />
<glyph unicode="&#xc6;" horiz-adv-x="1652" d="M0 0l657 1427h906v-301h-420v-239h330v-291h-330v-291h456v-305h-815v217h-327l-92 -217h-365zM567 479h217v230q0 105 8.5 265.5t8.5 164.5h-4q-2 -6 -12.5 -49.5t-19.5 -78t-22.5 -84t-29.5 -96.5t-33 -86z" />
<glyph unicode="&#xc7;" horiz-adv-x="1095" d="M82 713q0 174 27 304t74 213t121 133.5t158.5 70.5t194.5 20q123 0 221.5 -29.5t157.5 -78.5l-135 -277q-97 84 -221 84q-53 0 -85 -9t-57.5 -32.5t-37.5 -72.5t-17.5 -120t-5.5 -184q0 -146 13 -239.5t41 -140.5t62 -63t87 -16q138 0 227 99l152 -260 q-70 -67 -162 -104.5t-231 -37.5h-2l-19 -61q70 -12 106.5 -56.5t36.5 -111.5q0 -96 -55.5 -151.5t-191.5 -55.5q-98 0 -174 39l45 137q50 -26 104 -26q42 0 60 12.5t18 44.5q0 33 -18 44t-70 11q-29 0 -64 -10l50 201q-209 43 -309.5 216.5t-100.5 506.5z" />
<glyph unicode="&#xc8;" horiz-adv-x="991" d="M123 0v1427h778v-301h-420v-239h330v-291h-330v-291h457v-305h-815zM213 1712l156 266l401 -303l-106 -180z" />
<glyph unicode="&#xc9;" horiz-adv-x="991" d="M123 0v1427h778v-301h-420v-239h330v-291h-330v-291h457v-305h-815zM283 1675l401 303l156 -266l-451 -217z" />
<glyph unicode="&#xca;" horiz-adv-x="991" d="M123 0v1427h778v-301h-420v-239h330v-291h-330v-291h457v-305h-815zM168 1638l254 269h184l250 -269l-98 -143l-252 139l-240 -139z" />
<glyph unicode="&#xcb;" horiz-adv-x="991" d="M123 0v1427h778v-301h-420v-239h330v-291h-330v-291h457v-305h-815zM125 1683q0 72 49 122t117 50q71 0 122.5 -50.5t51.5 -121.5q0 -70 -50 -118.5t-118 -48.5q-70 0 -121 48.5t-51 118.5zM559 1683q0 72 47.5 122t116.5 50q72 0 123 -50t51 -122q0 -70 -49.5 -118.5 t-118.5 -48.5q-71 0 -120.5 48.5t-49.5 118.5z" />
<glyph unicode="&#xcc;" horiz-adv-x="802" d="M82 0v197l137 34v965l-137 35v196h639v-196l-137 -35v-965l137 -34v-197h-639zM96 1712l156 266l401 -303l-106 -180z" />
<glyph unicode="&#xcd;" horiz-adv-x="802" d="M82 0v197l137 34v965l-137 35v196h639v-196l-137 -35v-965l137 -34v-197h-639zM150 1675l401 303l156 -266l-451 -217z" />
<glyph unicode="&#xce;" horiz-adv-x="802" d="M57 1638l254 269h185l249 -269l-98 -143l-252 139l-239 -139zM82 0v197l137 34v965l-137 35v196h639v-196l-137 -35v-965l137 -34v-197h-639z" />
<glyph unicode="&#xcf;" horiz-adv-x="802" d="M14 1683q0 72 49 122t117 50q71 0 122.5 -50.5t51.5 -121.5q0 -70 -50 -118.5t-118 -48.5q-70 0 -121 48.5t-51 118.5zM82 0v197l137 34v965l-137 35v196h639v-196l-137 -35v-965l137 -34v-197h-639zM449 1683q0 72 47 122t116 50q72 0 123 -50t51 -122 q0 -70 -49.5 -118.5t-118.5 -48.5q-71 0 -120 48.5t-49 118.5z" />
<glyph unicode="&#xd0;" horiz-adv-x="1269" d="M31 563v279h106v585h500q136 0 235.5 -36t171.5 -116t108 -213.5t36 -322.5q0 -136 -15.5 -244.5t-53.5 -203t-98.5 -157.5t-154.5 -98.5t-217 -35.5h-512v563h-106zM496 305h127q50 0 79.5 14.5t53.5 60.5t33.5 135.5t9.5 236.5q0 98 -8.5 166t-22 109t-38.5 63 t-51.5 29t-66.5 7h-116v-284h157v-279h-157v-258z" />
<glyph unicode="&#xd1;" horiz-adv-x="1239" d="M123 0v1427h332l254 -555q54 -115 116 -321h2q-32 269 -32 369v507h321v-1427h-354l-240 559q-57 136 -116 318h-3q1 -4 7.5 -44.5t11 -74.5t10.5 -84t9 -104t3 -105v-465h-321zM231 1632q93 236 254 236q56 0 101 -18t79 -36t62 -18q27 0 48.5 18.5t45.5 57.5l176 -115 q-93 -235 -254 -235q-56 0 -101 18t-78.5 35.5t-61.5 17.5t-49 -18.5t-45 -56.5z" />
<glyph unicode="&#xd2;" horiz-adv-x="1327" d="M94 713q0 265 67 430t194 238t325 73q197 0 322.5 -73.5t190 -237.5t64.5 -430q0 -265 -65 -429.5t-191 -237.5t-323 -73q-297 0 -440.5 174.5t-143.5 565.5zM371 1712l155 266l402 -303l-107 -180zM483 719q0 -187 17 -282.5t57.5 -134t118.5 -38.5t118 39.5t57 135.5 t17 284q0 137 -8.5 219.5t-31 134t-58 70t-94.5 18.5q-78 0 -118.5 -38.5t-57.5 -132t-17 -275.5z" />
<glyph unicode="&#xd3;" horiz-adv-x="1327" d="M82 713q0 265 67 430t194 238t325 73q197 0 322.5 -73.5t190 -237.5t64.5 -430q0 -265 -65 -429.5t-191 -237.5t-323 -73q-297 0 -440.5 174.5t-143.5 565.5zM412 1675l401 303l156 -266l-451 -217zM471 719q0 -187 17 -282.5t57.5 -134t118.5 -38.5t118 39.5t57 135.5 t17 284q0 137 -8.5 219.5t-31 134t-58 70t-94.5 18.5q-78 0 -118.5 -38.5t-57.5 -132t-17 -275.5z" />
<glyph unicode="&#xd4;" horiz-adv-x="1327" d="M82 713q0 265 67 430t194 238t325 73q197 0 322.5 -73.5t190 -237.5t64.5 -430q0 -265 -65 -429.5t-191 -237.5t-323 -73q-297 0 -440.5 174.5t-143.5 565.5zM319 1638l254 269h185l250 -269l-99 -143l-252 139l-239 -139zM471 719q0 -187 17 -282.5t57.5 -134 t118.5 -38.5t118 39.5t57 135.5t17 284q0 137 -8.5 219.5t-31 134t-58 70t-94.5 18.5q-78 0 -118.5 -38.5t-57.5 -132t-17 -275.5z" />
<glyph unicode="&#xd5;" horiz-adv-x="1327" d="M82 713q0 265 67 430t194 238t325 73q197 0 322.5 -73.5t190 -237.5t64.5 -430q0 -265 -65 -429.5t-191 -237.5t-323 -73q-297 0 -440.5 174.5t-143.5 565.5zM281 1632q93 236 254 236q56 0 101 -18t78.5 -36t61.5 -18q27 0 48.5 18.5t45.5 57.5l177 -115 q-93 -235 -254 -235q-56 0 -101 18t-79 35.5t-62 17.5t-49 -18.5t-45 -56.5zM471 719q0 -187 17 -282.5t57.5 -134t118.5 -38.5t118 39.5t57 135.5t17 284q0 137 -8.5 219.5t-31 134t-58 70t-94.5 18.5q-78 0 -118.5 -38.5t-57.5 -132t-17 -275.5z" />
<glyph unicode="&#xd6;" horiz-adv-x="1327" d="M82 713q0 265 67 430t194 238t325 73q197 0 322.5 -73.5t190 -237.5t64.5 -430q0 -265 -65 -429.5t-191 -237.5t-323 -73q-297 0 -440.5 174.5t-143.5 565.5zM276 1683q0 72 49 122t117 50q71 0 122.5 -50.5t51.5 -121.5q0 -70 -49.5 -118.5t-117.5 -48.5 q-70 0 -121.5 48.5t-51.5 118.5zM471 719q0 -187 17 -282.5t57.5 -134t118.5 -38.5t118 39.5t57 135.5t17 284q0 137 -8.5 219.5t-31 134t-58 70t-94.5 18.5q-78 0 -118.5 -38.5t-57.5 -132t-17 -275.5zM711 1683q0 72 47 122t116 50q72 0 123.5 -50t51.5 -122 q0 -70 -49.5 -118.5t-118.5 -48.5q-71 0 -120.5 48.5t-49.5 118.5z" />
<glyph unicode="&#xd7;" d="M72 350l282 289l-282 289l217 229l278 -289l277 289l209 -221l-277 -291l277 -289l-217 -229l-277 293l-276 -293z" />
<glyph unicode="&#xd8;" horiz-adv-x="1327" d="M70 -90l147 248q-135 178 -135 555q0 265 67 430t194 238t325 73q171 0 288 -57l113 188l188 -106l-135 -226q123 -178 123 -540q0 -265 -65 -429.5t-191 -237.5t-323 -73q-159 0 -277 50l-131 -220zM461 719q0 -62 4 -148l328 551q-42 47 -129 47q-79 0 -121.5 -38.5 t-62 -135t-19.5 -276.5zM549 291q39 -31 115 -31q79 0 121 39.5t61.5 139t19.5 284.5q0 67 -2 96z" />
<glyph unicode="&#xd9;" horiz-adv-x="1228" d="M106 498v929h359v-997q0 -83 26.5 -118.5t106.5 -35.5q99 0 150 39v1112h358v-1427h-254l-39 90q-48 -57 -116 -87t-175 -30q-210 0 -313 125t-103 400zM322 1712l155 266l402 -303l-107 -180z" />
<glyph unicode="&#xda;" horiz-adv-x="1228" d="M106 498v929h359v-997q0 -83 26.5 -118.5t106.5 -35.5q99 0 150 39v1112h358v-1427h-254l-39 90q-48 -57 -116 -87t-175 -30q-210 0 -313 125t-103 400zM393 1675l402 303l155 -266l-450 -217z" />
<glyph unicode="&#xdb;" horiz-adv-x="1228" d="M106 498v929h359v-997q0 -83 26.5 -118.5t106.5 -35.5q99 0 150 39v1112h358v-1427h-254l-39 90q-48 -57 -116 -87t-175 -30q-210 0 -313 125t-103 400zM285 1638l254 269h184l250 -269l-99 -143l-251 139l-240 -139z" />
<glyph unicode="&#xdc;" horiz-adv-x="1228" d="M106 498v929h359v-997q0 -83 26.5 -118.5t106.5 -35.5q99 0 150 39v1112h358v-1427h-254l-39 90q-48 -57 -116 -87t-175 -30q-210 0 -313 125t-103 400zM236 1683q0 72 48.5 122t116.5 50q71 0 122.5 -50.5t51.5 -121.5q0 -70 -49.5 -118.5t-117.5 -48.5q-70 0 -121 48.5 t-51 118.5zM670 1683q0 72 47.5 122t116.5 50q72 0 123 -50t51 -122q0 -70 -49.5 -118.5t-118.5 -48.5q-71 0 -120.5 48.5t-49.5 118.5z" />
<glyph unicode="&#xdd;" horiz-adv-x="1150" d="M18 1427h390l98 -253q58 -153 74 -265q28 150 71 258l103 260h379l-388 -798v-629h-358v621zM346 1675l402 303l155 -266l-450 -217z" />
<glyph unicode="&#xde;" horiz-adv-x="1153" d="M123 0v1427h358v-225h60q112 0 195 -11.5t154 -41t115 -79.5t68.5 -127.5t24.5 -184.5q0 -92 -12.5 -160t-47 -130t-93 -101t-153 -61.5t-225.5 -22.5h-86v-283h-358zM481 569h90q86 0 123 33.5t37 128.5q0 104 -33.5 139t-105.5 35h-111v-336z" />
<glyph unicode="&#xdf;" horiz-adv-x="1146" d="M98 0v1044q0 223 126 327t349 104q193 0 301.5 -90t108.5 -250q0 -54 -16.5 -98t-40.5 -72t-48 -50.5t-40.5 -43.5t-16.5 -40q0 -11 3 -19.5t13.5 -20t20 -19.5t33 -28t41.5 -35q160 -140 160 -338q0 -203 -99.5 -300.5t-300.5 -97.5q-118 0 -198 37l36 252 q53 -16 86 -16q61 0 87 25.5t26 86.5q0 22 -4.5 42.5t-8.5 32.5t-19 32t-20 26t-29 31t-30 31q-36 39 -53 60.5t-33 68t-16 106.5q0 53 15 94t36.5 66t43 47t36.5 48.5t15 58.5q0 51 -24.5 72.5t-76.5 21.5q-64 0 -94.5 -36t-30.5 -130v-1030h-338z" />
<glyph unicode="&#xe0;" horiz-adv-x="980" d="M49 317q0 182 108.5 262t338.5 80h55v21q0 76 -20.5 105.5t-81.5 29.5q-117 0 -263 -90l-120 223q187 135 415 135q219 0 313.5 -80t94.5 -272v-731h-266q-4 0 -27 74q-97 -101 -236 -101q-311 0 -311 344zM197 1354l155 266l402 -303l-107 -180zM379 322 q0 -68 18.5 -95.5t65.5 -27.5t88 26v234q-107 -1 -139.5 -31t-32.5 -106z" />
<glyph unicode="&#xe1;" horiz-adv-x="980" d="M49 317q0 182 108.5 262t338.5 80h55v21q0 76 -20.5 105.5t-81.5 29.5q-117 0 -263 -90l-120 223q187 135 415 135q219 0 313.5 -80t94.5 -272v-731h-266q-4 0 -27 74q-97 -101 -236 -101q-311 0 -311 344zM223 1317l402 303l155 -266l-450 -217zM379 322 q0 -68 18.5 -95.5t65.5 -27.5t88 26v234q-107 -1 -139.5 -31t-32.5 -106z" />
<glyph unicode="&#xe2;" horiz-adv-x="980" d="M49 317q0 182 108.5 262t338.5 80h55v21q0 76 -20.5 105.5t-81.5 29.5q-117 0 -263 -90l-120 223q187 135 415 135q219 0 313.5 -80t94.5 -272v-731h-266q-4 0 -27 74q-97 -101 -236 -101q-311 0 -311 344zM139 1280l254 268h185l249 -268l-98 -143l-252 139l-239 -139z M379 322q0 -68 18.5 -95.5t65.5 -27.5t88 26v234q-107 -1 -139.5 -31t-32.5 -106z" />
<glyph unicode="&#xe3;" horiz-adv-x="980" d="M49 317q0 182 108.5 262t338.5 80h55v21q0 76 -20.5 105.5t-81.5 29.5q-117 0 -263 -90l-120 223q187 135 415 135q219 0 313.5 -80t94.5 -272v-731h-266q-4 0 -27 74q-97 -101 -236 -101q-311 0 -311 344zM100 1274q93 235 254 235q44 0 82.5 -11t60.5 -24.5t49 -24.5 t50 -11q28 0 49 18.5t45 56.5l176 -114q-93 -236 -254 -236q-56 0 -101 18t-78.5 36t-61.5 18t-49.5 -19t-45.5 -57zM379 322q0 -68 18.5 -95.5t65.5 -27.5t88 26v234q-107 -1 -139.5 -31t-32.5 -106z" />
<glyph unicode="&#xe4;" horiz-adv-x="980" d="M49 317q0 182 108.5 262t338.5 80h55v21q0 76 -20.5 105.5t-81.5 29.5q-117 0 -263 -90l-120 223q187 135 415 135q219 0 313.5 -80t94.5 -272v-731h-266q-4 0 -27 74q-97 -101 -236 -101q-311 0 -311 344zM106 1325q0 72 49 122t117 50q71 0 122.5 -50.5t51.5 -121.5 q0 -70 -49.5 -119t-117.5 -49q-70 0 -121.5 49t-51.5 119zM379 322q0 -68 18.5 -95.5t65.5 -27.5t88 26v234q-107 -1 -139.5 -31t-32.5 -106zM541 1325q0 72 47.5 122t116.5 50q72 0 123 -50t51 -122q0 -70 -49.5 -119t-118.5 -49q-71 0 -120.5 49t-49.5 119z" />
<glyph unicode="&#xe5;" horiz-adv-x="980" d="M49 317q0 182 108.5 262t338.5 80h55v21q0 76 -20.5 105.5t-81.5 29.5q-117 0 -263 -90l-120 223q187 135 415 135q219 0 313.5 -80t94.5 -272v-731h-266q-4 0 -27 74q-97 -101 -236 -101q-311 0 -311 344zM256 1386q0 107 65 174.5t171 67.5t170.5 -67.5t64.5 -174.5 t-64.5 -174t-170.5 -67t-171 67t-65 174zM379 322q0 -68 18.5 -95.5t65.5 -27.5t88 26v234q-107 -1 -139.5 -31t-32.5 -106zM422 1386q0 -108 70 -108q37 0 53 27t16 81q0 56 -16 82.5t-53 26.5t-53.5 -27t-16.5 -82z" />
<glyph unicode="&#xe6;" horiz-adv-x="1507" d="M49 313q0 181 108 259.5t339 78.5h55v29q0 76 -20.5 105.5t-81.5 29.5q-117 0 -263 -90l-120 223q187 135 415 135q175 0 258 -77q96 77 248 77q129 0 218 -34.5t142.5 -108t77 -179.5t23.5 -257v-78h-551q9 -117 46 -155t124 -38q66 0 118 23.5t107 65.5l138 -222 q-54 -54 -149.5 -90.5t-203.5 -36.5q-269 0 -383 150q-131 -150 -323 -150q-172 0 -247 88.5t-75 251.5zM379 317q0 -66 19 -90t67 -24q45 0 86 28v220q-107 -1 -139.5 -30.5t-32.5 -103.5zM895 649h213q-1 46 -3.5 72t-8.5 53t-17 39.5t-30 20.5t-48 8q-60 0 -80.5 -38.5 t-25.5 -154.5z" />
<glyph unicode="&#xe7;" horiz-adv-x="876" d="M61 535q0 286 109.5 417t337.5 131q206 0 340 -125l-156 -215q-65 72 -145 72q-47 0 -70.5 -18t-36 -77.5t-12.5 -178.5q0 -123 11 -185.5t37 -88t77 -25.5q56 0 90.5 16.5t75.5 54.5l127 -225q-132 -115 -316 -115l-18 -61q70 -12 106.5 -56.5t36.5 -111.5 q0 -96 -55.5 -151.5t-191.5 -55.5q-99 0 -175 39l46 137q50 -26 104 -26q42 0 60 12.5t18 44.5q0 33 -18 44t-70 11q-29 0 -64 -10l49 205q-153 41 -225 173.5t-72 367.5z" />
<glyph unicode="&#xe8;" horiz-adv-x="1036" d="M61 535q0 289 114.5 418.5t340.5 129.5q129 0 218 -34.5t142.5 -108t77 -179.5t23.5 -257v-88h-549q9 -111 45.5 -147t122.5 -36q66 0 118 23.5t107 65.5l137 -222q-54 -54 -149.5 -90.5t-202.5 -36.5q-289 0 -417 132t-128 430zM233 1354l156 266l402 -303l-107 -180z M424 639h213q-1 48 -3.5 75t-8.5 55.5t-17 42t-30 22t-48 8.5q-60 0 -80.5 -40.5t-25.5 -162.5z" />
<glyph unicode="&#xe9;" horiz-adv-x="1036" d="M61 535q0 289 114.5 418.5t340.5 129.5q129 0 218 -34.5t142.5 -108t77 -179.5t23.5 -257v-88h-549q9 -111 45.5 -147t122.5 -36q66 0 118 23.5t107 65.5l137 -222q-54 -54 -149.5 -90.5t-202.5 -36.5q-289 0 -417 132t-128 430zM266 1317l402 303l155 -266l-450 -217z M424 639h213q-1 48 -3.5 75t-8.5 55.5t-17 42t-30 22t-48 8.5q-60 0 -80.5 -40.5t-25.5 -162.5z" />
<glyph unicode="&#xea;" horiz-adv-x="1036" d="M61 535q0 289 114.5 418.5t340.5 129.5q129 0 218 -34.5t142.5 -108t77 -179.5t23.5 -257v-88h-549q9 -111 45.5 -147t122.5 -36q66 0 118 23.5t107 65.5l137 -222q-54 -54 -149.5 -90.5t-202.5 -36.5q-289 0 -417 132t-128 430zM174 1280l254 268h184l250 -268l-98 -143 l-252 139l-240 -139zM424 639h213q-1 48 -3.5 75t-8.5 55.5t-17 42t-30 22t-48 8.5q-60 0 -80.5 -40.5t-25.5 -162.5z" />
<glyph unicode="&#xeb;" horiz-adv-x="1036" d="M61 535q0 289 114.5 418.5t340.5 129.5q129 0 218 -34.5t142.5 -108t77 -179.5t23.5 -257v-88h-549q9 -111 45.5 -147t122.5 -36q66 0 118 23.5t107 65.5l137 -222q-54 -54 -149.5 -90.5t-202.5 -36.5q-289 0 -417 132t-128 430zM131 1325q0 72 49 122t117 50 q71 0 122.5 -50.5t51.5 -121.5q0 -70 -50 -119t-118 -49q-70 0 -121 49t-51 119zM424 639h213q-1 48 -3.5 75t-8.5 55.5t-17 42t-30 22t-48 8.5q-60 0 -80.5 -40.5t-25.5 -162.5zM565 1325q0 72 47.5 122t116.5 50q72 0 123 -50t51 -122q0 -70 -49.5 -119t-118.5 -49 q-71 0 -120.5 49t-49.5 119z" />
<glyph unicode="&#xec;" horiz-adv-x="595" d="M-33 1354l156 266l401 -303l-106 -180zM49 834v223h443v-1057h-338v805z" />
<glyph unicode="&#xed;" horiz-adv-x="595" d="M49 834v223h443v-1057h-338v805zM102 1317l402 303l155 -266l-450 -217z" />
<glyph unicode="&#xee;" horiz-adv-x="595" d="M-45 1280l254 268h184l250 -268l-98 -143l-252 139l-240 -139zM49 834v223h443v-1057h-338v805z" />
<glyph unicode="&#xef;" horiz-adv-x="595" d="M-82 1325q0 72 49 122t117 50q71 0 122.5 -50.5t51.5 -121.5q0 -70 -50 -119t-118 -49q-70 0 -121 49t-51 119zM49 834v223h443v-1057h-338v805zM352 1325q0 72 47.5 122t116.5 50q72 0 123 -50t51 -122q0 -70 -49.5 -119t-118.5 -49q-71 0 -120.5 49t-49.5 119z" />
<glyph unicode="&#xf0;" horiz-adv-x="1071" d="M61 494q0 104 21.5 188.5t58 141.5t86.5 95.5t105.5 56t116.5 17.5q102 0 157 -49q-29 92 -92 174l-195 -82l-61 164l121 51q-58 46 -152 88l119 209q185 -70 322 -176l206 86l62 -164l-131 -55q205 -255 205 -666q0 -165 -31 -281.5t-93 -186t-147.5 -101t-203.5 -31.5 q-474 0 -474 521zM424 483q0 -145 22.5 -204.5t90.5 -59.5q35 0 57.5 16.5t33.5 54.5t15 84t4 120q0 146 -21.5 198.5t-90.5 52.5t-90 -55.5t-21 -206.5z" />
<glyph unicode="&#xf1;" horiz-adv-x="1060" d="M98 0v1057h279l22 -90q60 57 126.5 86.5t162.5 29.5q147 0 214 -69t67 -238v-776h-338v707q0 65 -22.5 87.5t-63.5 22.5q-40 0 -60 -7t-49 -28v-782h-338zM141 1274q93 235 254 235q44 0 82.5 -11t60.5 -24.5t49 -24.5t50 -11q28 0 49 18.5t45 56.5l176 -114 q-93 -236 -254 -236q-56 0 -101 18t-78.5 36t-61.5 18t-49.5 -19t-45.5 -57z" />
<glyph unicode="&#xf2;" horiz-adv-x="1062" d="M61 535q0 290 117.5 419t353.5 129q234 0 351.5 -133.5t117.5 -425.5q0 -290 -118 -420.5t-353 -130.5q-234 0 -351.5 135t-117.5 427zM225 1354l156 266l401 -303l-106 -180zM424 524q0 -80 2 -127.5t8 -86t18.5 -56.5t31 -26.5t48.5 -8.5q70 0 88.5 61t18.5 255 q0 84 -2.5 132t-8 85.5t-19 53.5t-31 23t-48.5 7q-30 0 -48 -8.5t-30.5 -25.5t-18 -57t-7.5 -88t-2 -133z" />
<glyph unicode="&#xf3;" horiz-adv-x="1062" d="M61 535q0 290 117.5 419t353.5 129q234 0 351.5 -133.5t117.5 -425.5q0 -290 -118 -420.5t-353 -130.5q-234 0 -351.5 135t-117.5 427zM279 1317l401 303l156 -266l-451 -217zM424 524q0 -80 2 -127.5t8 -86t18.5 -56.5t31 -26.5t48.5 -8.5q70 0 88.5 61t18.5 255 q0 84 -2.5 132t-8 85.5t-19 53.5t-31 23t-48.5 7q-30 0 -48 -8.5t-30.5 -25.5t-18 -57t-7.5 -88t-2 -133z" />
<glyph unicode="&#xf4;" horiz-adv-x="1062" d="M61 535q0 290 117.5 419t353.5 129q234 0 351.5 -133.5t117.5 -425.5q0 -290 -118 -420.5t-353 -130.5q-234 0 -351.5 135t-117.5 427zM186 1280l254 268h185l249 -268l-98 -143l-252 139l-239 -139zM424 524q0 -80 2 -127.5t8 -86t18.5 -56.5t31 -26.5t48.5 -8.5 q70 0 88.5 61t18.5 255q0 84 -2.5 132t-8 85.5t-19 53.5t-31 23t-48.5 7q-30 0 -48 -8.5t-30.5 -25.5t-18 -57t-7.5 -88t-2 -133z" />
<glyph unicode="&#xf5;" horiz-adv-x="1062" d="M61 535q0 290 117.5 419t353.5 129q234 0 351.5 -133.5t117.5 -425.5q0 -290 -118 -420.5t-353 -130.5q-234 0 -351.5 135t-117.5 427zM147 1274q93 235 254 235q44 0 82.5 -11t60.5 -24.5t49 -24.5t50 -11q28 0 49 18.5t45 56.5l176 -114q-93 -236 -254 -236 q-56 0 -101 18t-78.5 36t-61.5 18q-27 0 -48.5 -18.5t-45.5 -57.5zM424 524q0 -80 2 -127.5t8 -86t18.5 -56.5t31 -26.5t48.5 -8.5q70 0 88.5 61t18.5 255q0 84 -2.5 132t-8 85.5t-19 53.5t-31 23t-48.5 7q-30 0 -48 -8.5t-30.5 -25.5t-18 -57t-7.5 -88t-2 -133z" />
<glyph unicode="&#xf6;" horiz-adv-x="1062" d="M61 535q0 290 117.5 419t353.5 129q234 0 351.5 -133.5t117.5 -425.5q0 -290 -118 -420.5t-353 -130.5q-234 0 -351.5 135t-117.5 427zM143 1325q0 72 49 122t117 50q71 0 122.5 -50.5t51.5 -121.5q0 -70 -50 -119t-118 -49q-70 0 -121 49t-51 119zM424 524 q0 -80 2 -127.5t8 -86t18.5 -56.5t31 -26.5t48.5 -8.5q70 0 88.5 61t18.5 255q0 84 -2.5 132t-8 85.5t-19 53.5t-31 23t-48.5 7q-30 0 -48 -8.5t-30.5 -25.5t-18 -57t-7.5 -88t-2 -133zM578 1325q0 72 47 122t116 50q72 0 123 -50t51 -122q0 -70 -49 -119t-118 -49 q-71 0 -120.5 49t-49.5 119z" />
<glyph unicode="&#xf7;" d="M86 475v324h954v-324h-954zM358 184q0 82 60 141.5t143 59.5t144 -59.5t61 -141.5q0 -84 -60.5 -144t-144.5 -60q-83 0 -143 60t-60 144zM358 1094q0 82 60 141t143 59t144 -59t61 -141q0 -84 -60.5 -144.5t-144.5 -60.5q-83 0 -143 60t-60 145z" />
<glyph unicode="&#xf8;" horiz-adv-x="1062" d="M41 -55l115 192q-95 136 -95 398q0 290 117.5 419t353.5 129q91 0 168 -22l105 176l217 -125l-115 -192q94 -139 94 -396q0 -290 -118 -420.5t-353 -130.5q-86 0 -170 23l-102 -176zM424 592l141 239q-25 5 -35 5q-27 0 -44.5 -6.5t-30 -21t-19 -44.5t-9 -69t-3.5 -103z M496 223q10 -4 36 -4q63 0 83.5 49.5t23.5 194.5z" />
<glyph unicode="&#xf9;" horiz-adv-x="1060" d="M92 293v764h338v-707q0 -65 22.5 -87.5t63.5 -22.5q38 0 60.5 9t48.5 30v778h338v-1057h-279l-22 94q-46 -46 -70.5 -66t-75.5 -37.5t-121 -17.5q-140 0 -221.5 80.5t-81.5 239.5zM207 1354l155 266l402 -303l-107 -180z" />
<glyph unicode="&#xfa;" horiz-adv-x="1060" d="M92 293v764h338v-707q0 -65 22.5 -87.5t63.5 -22.5q38 0 60.5 9t48.5 30v778h338v-1057h-279l-22 94q-46 -46 -70.5 -66t-75.5 -37.5t-121 -17.5q-140 0 -221.5 80.5t-81.5 239.5zM279 1317l401 303l156 -266l-451 -217z" />
<glyph unicode="&#xfb;" horiz-adv-x="1060" d="M92 293v764h338v-707q0 -65 22.5 -87.5t63.5 -22.5q38 0 60.5 9t48.5 30v778h338v-1057h-279l-22 94q-46 -46 -70.5 -66t-75.5 -37.5t-121 -17.5q-140 0 -221.5 80.5t-81.5 239.5zM186 1280l254 268h185l249 -268l-98 -143l-252 139l-239 -139z" />
<glyph unicode="&#xfc;" horiz-adv-x="1060" d="M92 293v764h338v-707q0 -65 22.5 -87.5t63.5 -22.5q38 0 60.5 9t48.5 30v778h338v-1057h-279l-22 94q-46 -46 -70.5 -66t-75.5 -37.5t-121 -17.5q-140 0 -221.5 80.5t-81.5 239.5zM141 1325q0 72 49 122t117 50q71 0 122.5 -50.5t51.5 -121.5q0 -70 -50 -119t-118 -49 q-70 0 -121 49t-51 119zM575 1325q0 72 47.5 122t116.5 50q72 0 123 -50t51 -122q0 -70 -49.5 -119t-118.5 -49q-71 0 -120.5 49t-49.5 119z" />
<glyph unicode="&#xfd;" horiz-adv-x="1013" d="M8 1057h352l109 -508q34 -124 43 -227h2q18 147 39 235l98 500h355l-308 -1059q-27 -94 -57 -157.5t-69.5 -110t-97 -74.5t-129 -45t-177.5 -27l-66 275q98 12 153.5 28t87.5 41.5t60 71.5h-79zM266 1317l402 303l155 -266l-450 -217z" />
<glyph unicode="&#xfe;" horiz-adv-x="1069" d="M98 -389v1894h338v-508q31 29 92.5 57.5t130.5 28.5q90 0 152.5 -25.5t108 -85t67 -162t21.5 -253.5q0 -172 -20.5 -286.5t-65.5 -179.5t-106 -91.5t-152 -26.5q-131 0 -228 88v-450h-338zM436 276q40 -36 96 -36q73 0 93 57.5t20 243.5q0 73 -2 116.5t-7.5 78 t-17.5 50.5t-29.5 23.5t-45.5 7.5q-62 0 -107 -35v-506z" />
<glyph unicode="&#xff;" horiz-adv-x="1013" d="M8 1057h352l109 -508q34 -124 43 -227h2q18 147 39 235l98 500h355l-308 -1059q-27 -94 -57 -157.5t-69.5 -110t-97 -74.5t-129 -45t-177.5 -27l-66 275q98 12 153.5 28t87.5 41.5t60 71.5h-79zM119 1325q0 72 49 122t117 50q71 0 122.5 -50.5t51.5 -121.5 q0 -70 -50 -119t-118 -49q-70 0 -121 49t-51 119zM553 1325q0 72 47.5 122t116.5 50q72 0 123 -50t51 -122q0 -70 -49.5 -119t-118.5 -49q-71 0 -120.5 49t-49.5 119z" />
<glyph unicode="&#x152;" horiz-adv-x="1642" d="M82 688q0 136 15.5 244.5t53.5 203t98.5 157.5t154.5 98.5t217 35.5h931v-301h-419v-239h329v-291h-329v-291h456v-305h-956q-136 0 -235.5 36t-171.5 116t-108 213.5t-36 322.5zM471 676q0 -98 8 -166.5t22 -109t38.5 -63t51 -29.5t66.5 -7h117v821h-127 q-50 0 -79.5 -14.5t-53.5 -60t-33.5 -135t-9.5 -236.5z" />
<glyph unicode="&#x153;" horiz-adv-x="1605" d="M61 535q0 290 115.5 419t349.5 129q198 0 291 -122q96 122 289 122q238 0 339 -139t101 -440v-88h-549q9 -111 45.5 -147t122.5 -36q110 0 226 89l137 -222q-54 -54 -149.5 -90.5t-202.5 -36.5q-245 0 -355 131q-96 -131 -297 -131q-232 0 -347.5 135t-115.5 427z M424 524q0 -80 2 -127.5t8 -86t18.5 -56.5t31 -26.5t48.5 -8.5q70 0 88.5 61t18.5 255q0 84 -2.5 132t-8 85.5t-19 53.5t-31 23t-48.5 7q-30 0 -48 -8.5t-30.5 -25.5t-18 -57t-7.5 -88t-2 -133zM993 639h213q-1 49 -3 75.5t-8 55t-17 42t-30 22t-48 8.5q-60 0 -81 -40.5 t-26 -162.5z" />
<glyph unicode="&#x178;" horiz-adv-x="1150" d="M18 1427h390l98 -253q58 -153 74 -265q28 150 71 258l103 260h379l-388 -798v-629h-358v621zM188 1683q0 72 49 122t117 50q71 0 122.5 -50.5t51.5 -121.5q0 -70 -50 -118.5t-118 -48.5q-70 0 -121 48.5t-51 118.5zM623 1683q0 72 47 122t116 50q72 0 123.5 -50 t51.5 -122q0 -70 -49.5 -118.5t-118.5 -48.5q-71 0 -120.5 48.5t-49.5 118.5z" />
<glyph unicode="&#x2c6;" horiz-adv-x="1048" d="M180 1280l254 268h184l250 -268l-98 -143l-252 139l-239 -139z" />
<glyph unicode="&#x2dc;" horiz-adv-x="1048" d="M141 1274q93 235 254 235q44 0 82.5 -11t60.5 -24.5t49 -24.5t50 -11q28 0 49 18.5t45 56.5l176 -114q-93 -236 -254 -236q-56 0 -101 18t-78.5 36t-61.5 18t-49.5 -19t-45.5 -57z" />
<glyph unicode="&#x2000;" horiz-adv-x="993" />
<glyph unicode="&#x2001;" horiz-adv-x="1987" />
<glyph unicode="&#x2002;" horiz-adv-x="993" />
<glyph unicode="&#x2003;" horiz-adv-x="1987" />
<glyph unicode="&#x2004;" horiz-adv-x="662" />
<glyph unicode="&#x2005;" horiz-adv-x="496" />
<glyph unicode="&#x2006;" horiz-adv-x="331" />
<glyph unicode="&#x2007;" horiz-adv-x="331" />
<glyph unicode="&#x2008;" horiz-adv-x="248" />
<glyph unicode="&#x2009;" horiz-adv-x="397" />
<glyph unicode="&#x200a;" horiz-adv-x="110" />
<glyph unicode="&#x2010;" horiz-adv-x="677" d="M88 403v334h502v-334h-502z" />
<glyph unicode="&#x2011;" horiz-adv-x="677" d="M88 403v334h502v-334h-502z" />
<glyph unicode="&#x2012;" horiz-adv-x="677" d="M88 403v334h502v-334h-502z" />
<glyph unicode="&#x2013;" horiz-adv-x="1105" d="M88 406v301h930v-301h-930z" />
<glyph unicode="&#x2014;" horiz-adv-x="1441" d="M88 406v301h1266v-301h-1266z" />
<glyph unicode="&#x2018;" horiz-adv-x="569" d="M86 1083q0 336 344 406l45 -152q-138 -42 -149 -127q68 -15 112.5 -62t44.5 -128q0 -78 -51.5 -129t-126.5 -51q-98 0 -158.5 66t-60.5 177z" />
<glyph unicode="&#x2019;" horiz-adv-x="569" d="M86 1309q0 77 51 128.5t127 51.5q98 0 158.5 -66.5t60.5 -177.5q0 -335 -344 -405l-45 151q139 43 150 127q-68 15 -113 62.5t-45 128.5z" />
<glyph unicode="&#x201a;" horiz-adv-x="569" d="M86 176q0 78 51 129t127 51q98 0 158.5 -66t60.5 -177q0 -336 -344 -406l-45 152q139 43 150 127q-68 15 -113 62.5t-45 127.5z" />
<glyph unicode="&#x201c;" horiz-adv-x="1067" d="M86 1083q0 336 344 406l45 -152q-138 -42 -149 -127q68 -15 112.5 -62t44.5 -128q0 -78 -51.5 -129t-126.5 -51q-98 0 -158.5 66t-60.5 177zM584 1083q0 336 344 406l45 -152q-139 -43 -150 -127q68 -15 113 -62.5t45 -127.5q0 -78 -51.5 -129t-126.5 -51 q-98 0 -158.5 66t-60.5 177z" />
<glyph unicode="&#x201d;" horiz-adv-x="1067" d="M86 1309q0 77 51 128.5t127 51.5q98 0 158.5 -66.5t60.5 -177.5q0 -335 -344 -405l-45 151q139 43 150 127q-68 15 -113 62.5t-45 128.5zM584 1309q0 77 51 128.5t127 51.5q98 0 158.5 -66.5t60.5 -177.5q0 -335 -344 -405l-45 151q138 42 149 127q-68 15 -112.5 62.5 t-44.5 128.5z" />
<glyph unicode="&#x201e;" horiz-adv-x="1067" d="M86 176q0 78 51 129t127 51q98 0 158.5 -66t60.5 -177q0 -336 -344 -406l-45 152q139 43 150 127q-68 15 -113 62.5t-45 127.5zM584 176q0 78 51 129t127 51q98 0 158.5 -66t60.5 -177q0 -336 -344 -406l-45 152q138 42 149 127q-68 15 -112.5 62t-44.5 128z" />
<glyph unicode="&#x2022;" horiz-adv-x="880" d="M90 684q0 148 102 251t248 103t248.5 -103t102.5 -251t-102.5 -251t-248.5 -103t-248 103t-102 251z" />
<glyph unicode="&#x2026;" horiz-adv-x="1611" d="M90 178q0 82 60 141.5t143 59.5t144 -59.5t61 -141.5q0 -84 -60.5 -144.5t-144.5 -60.5q-83 0 -143 60t-60 145zM602 178q0 82 60 141.5t143 59.5t144 -59.5t61 -141.5q0 -84 -60.5 -144.5t-144.5 -60.5q-83 0 -143 60t-60 145zM1114 178q0 82 60 141.5t143 59.5 t144 -59.5t61 -141.5q0 -84 -60.5 -144.5t-144.5 -60.5q-83 0 -143 60t-60 145z" />
<glyph unicode="&#x202f;" horiz-adv-x="397" />
<glyph unicode="&#x2039;" horiz-adv-x="688" d="M51 522l332 508l223 -160l-223 -348l223 -348l-223 -158z" />
<glyph unicode="&#x203a;" horiz-adv-x="688" d="M82 174l223 348l-223 348l223 160l332 -508l-332 -506z" />
<glyph unicode="&#x205f;" horiz-adv-x="496" />
<glyph unicode="&#x20ac;" d="M51 422v182h105v39q0 49 2 74h-107v182h125q23 120 71 206.5t118 138t155 75.5t191 24q118 0 216 -29t156 -75l-129 -258q-93 80 -221 80q-87 0 -132.5 -35t-65.5 -127h284v-182h-301v-113h301v-182h-280q23 -97 68 -130.5t118 -33.5q131 0 236 94l145 -241 q-143 -136 -395 -136q-236 0 -368.5 107.5t-170.5 339.5h-121z" />
<glyph unicode="&#x2122;" horiz-adv-x="1673" d="M61 1214v213h601v-213h-177v-643h-247v643h-177zM766 571v856h295l76 -346q16 -76 24 -157h2q13 101 25 157l72 346h317v-856h-240v275q0 143 13 299h-2q-38 -202 -54 -260l-59 -223h-162l-59 212q-23 79 -53 271h-3q15 -135 15 -303v-271h-207z" />
<glyph unicode="&#x25fc;" horiz-adv-x="1054" d="M0 0v1055h1055v-1055h-1055z" />
<glyph unicode="&#xfb01;" horiz-adv-x="1112" d="M31 805v252h102v45q0 102 21 177.5t56 122t88.5 75t109.5 39t127 10.5q168 0 331 -72l-82 -240q-98 37 -138 42q-26 4 -56 4q-61 0 -90 -26.5t-29 -98.5v-78h543v-1057h-338v805h-205v-805h-338v805h-102z" />
<glyph unicode="&#xfb02;" horiz-adv-x="1173" d="M31 805v252h102v106q0 94 22 162.5t55.5 106.5t85.5 60t98.5 28t109.5 6q77 0 196 -21h314v-1183q0 -68 13 -82.5t69 -14.5h18l31 -215q-96 -35 -184 -35q-76 0 -128 15.5t-83 41.5t-47.5 74.5t-21.5 100t-5 133.5v922q-52 10 -115 10q-90 0 -90 -76v-139h121v-252h-121 v-805h-338v805h-102z" />
<glyph unicode="&#xfb03;" horiz-adv-x="1654" d="M31 805v252h102v86q0 94 19.5 162.5t48 106t74 59.5t85.5 28t93 6q127 0 215 -37l-66 -225q-32 8 -61 8q-37 0 -53.5 -17.5t-16.5 -57.5v-119h205v45q0 102 21 177.5t56 122t88 75t109 39t127 10.5q169 0 332 -72l-82 -240q-98 37 -138 42q-26 4 -56 4q-61 0 -90 -26.5 t-29 -98.5v-78h542v-1057h-337v805h-205v-805h-338v805h-205v-805h-338v805h-102z" />
<glyph unicode="&#xfb04;" horiz-adv-x="1716" d="M31 805v252h102v86q0 94 19 162.5t47 106t71 59.5t81.5 28t88.5 6q127 0 215 -37l-65 -225q-32 8 -62 8q-57 0 -57 -75v-119h205v106q0 94 22 162.5t55.5 106.5t85.5 60t98.5 28t109.5 6q77 0 196 -21h313v-1183q0 -68 13 -82.5t69 -14.5h19l31 -215q-96 -35 -185 -35 q-76 0 -128 15.5t-82.5 41.5t-47 74.5t-21.5 100t-5 133.5v922q-52 10 -115 10q-90 0 -90 -76v-139h121v-252h-121v-805h-338v805h-205v-805h-338v805h-102z" />
</font>
</defs>
</svg>
