<?xml version="1.0" encoding="utf-8"?>
<!-- Generator: Adobe Illustrator 16.0.0, SVG Export Plug-In . SVG Version: 6.00 Build 0)  -->
<!DOCTYPE svg PUBLIC "-//W3C//DTD SVG 1.1//EN" "http://www.w3.org/Graphics/SVG/1.1/DTD/svg11.dtd">
<svg version="1.1" id="Layer_1" xmlns="http://www.w3.org/2000/svg" xmlns:xlink="http://www.w3.org/1999/xlink" x="0px" y="0px"
	 width="1497.843px" height="486px" viewBox="0 0 1497.843 486" enable-background="new 0 0 1497.843 486" xml:space="preserve">
<g>
	<path d="M32.449,84.51c0,81.227,0,161.704,0,242.478c-10.892,2.852-21.726,5.689-32.318,8.463c0,14.148,0,27.887,0,41.485
		c42.468,0,84.568,0,126.724,0c0-13.938,0-27.565,0-41.498c-10.812-2.822-21.52-5.617-32.362-8.448
		c-0.405-74.034,0.934-147.836-1.614-221.707c11.62,72.471,34.093,142.188,52.153,213.054c19.083,0,37.576-0.037,56.067,0.046
		c2.365,0.01,3.044-1.048,3.62-3.095c2.698-9.6,5.636-19.131,8.377-28.719c14.614-51.133,31.036-101.761,42.965-153.646
		c1.793-7.801,3.654-15.586,5.483-23.378c0.44,0.059,0.88,0.118,1.321,0.176c-2.279,72.359-0.799,144.734-1.379,217.235
		c-11.186,2.894-22.163,5.733-32.767,8.477c0,14.313,0,27.909,0,41.451c50.832,0,101.38,0,151.856,0c0-14.002,0-27.642,0-41.475
		c-10.843-2.828-21.564-5.625-32.372-8.444c0-80.871,0-161.51,0-242.399c10.892-2.855,21.718-5.693,32.222-8.446
		c0-15.704,0-30.784,0-45.823c-51.105,0-101.878,0-152.967,0c-14.372,60.261-33.912,119.092-43.197,180.461
		c-9.547-60.902-25.431-120.322-37.981-180.37c-49.072,0-97.634,0-146.279,0c0,15.433,0,30.52,0,45.676
		C10.924,78.908,21.646,81.698,32.449,84.51z"/>
	<path fill-rule="evenodd" clip-rule="evenodd" d="M32.449,84.51C21.646,81.698,10.924,78.908,0,76.065C0,60.909,0,45.822,0,30.39
		c48.646,0,97.208,0,146.279,0c12.55,60.047,28.434,119.467,37.981,180.37c9.285-61.37,28.825-120.201,43.197-180.461
		c51.089,0,101.861,0,152.967,0c0,15.039,0,30.119,0,45.823c-10.504,2.753-21.33,5.591-32.222,8.446c0,80.89,0,161.528,0,242.399
		c10.808,2.819,21.529,5.616,32.372,8.444c0,13.833,0,27.473,0,41.475c-50.477,0-101.024,0-151.856,0c0-13.542,0-27.138,0-41.451
		c10.604-2.743,21.581-5.583,32.767-8.477c0.581-72.5-0.899-144.876,1.379-217.235c-0.44-0.059-0.881-0.118-1.321-0.176
		c-1.83,7.792-3.69,15.578-5.483,23.378c-11.929,51.884-28.351,102.512-42.965,153.646c-2.741,9.588-5.679,19.119-8.377,28.719
		c-0.575,2.047-1.255,3.105-3.62,3.095c-18.492-0.083-36.984-0.046-56.067-0.046c-18.06-70.866-40.534-140.583-52.153-213.054
		c2.547,73.871,1.209,147.673,1.614,221.707c10.842,2.831,21.55,5.625,32.362,8.448c0,13.932,0,27.56,0,41.498
		c-42.155,0-84.256,0-126.724,0c0-13.598,0-27.337,0-41.485c10.593-2.774,21.427-5.611,32.318-8.463
		C32.449,246.213,32.449,165.736,32.449,84.51z"/>
</g>
<g>
	<path fill="#FFFFFF" d="M547.868,376.936c0-13.991,0-27.573,0-41.447c-6.78-1.397-13.364-3.211-20.069-3.978
		c-4.604-0.527-5.097-2.615-5.091-6.502c0.099-66.316,0.071-132.632,0.071-198.949c0-1.908,0-3.815,0-5.668
		c-36.272,0-71.709,0-107.652,0c0,15.547-0.05,30.832,0.123,46.113c0.01,0.925,1.635,2.296,2.769,2.668
		c6.308,2.07,12.654,4.053,19.076,5.73c2.743,0.716,3.759,1.87,3.754,4.753c-0.076,48.987-0.083,97.975,0.009,146.962
		c0.006,3.254-1.236,4.192-4.243,4.688c-7.146,1.178-14.22,2.792-21.145,4.193c0,14.121,0,27.701,0,41.436
		C459.619,376.936,503.406,376.936,547.868,376.936z M434.795,55.972c-0.018,25.429,19.734,45.205,45.151,45.205
		c24.675,0,44.784-20.021,44.833-44.632c0.049-25.452-19.686-45.363-45.015-45.419C454.668,11.069,434.813,30.87,434.795,55.972z"/>
	<path fill-rule="evenodd" clip-rule="evenodd" d="M547.868,376.936c-44.462,0-88.25,0-132.399,0c0-13.735,0-27.314,0-41.436
		c6.925-1.402,14-3.015,21.145-4.193c3.007-0.496,4.249-1.434,4.243-4.688c-0.091-48.987-0.085-97.975-0.009-146.962
		c0.004-2.884-1.011-4.037-3.754-4.753c-6.421-1.677-12.768-3.66-19.076-5.73c-1.134-0.372-2.758-1.743-2.769-2.668
		c-0.173-15.281-0.123-30.565-0.123-46.113c35.943,0,71.38,0,107.652,0c0,1.853,0,3.761,0,5.668
		c0,66.316,0.027,132.632-0.071,198.949c-0.006,3.887,0.487,5.975,5.091,6.502c6.705,0.767,13.289,2.581,20.069,3.978
		C547.868,349.363,547.868,362.945,547.868,376.936z"/>
	<path fill-rule="evenodd" clip-rule="evenodd" d="M434.795,55.972c0.018-25.102,19.873-44.903,44.969-44.847
		c25.329,0.057,45.063,19.968,45.015,45.419c-0.049,24.611-20.158,44.632-44.833,44.632
		C454.53,101.177,434.777,81.401,434.795,55.972z"/>
</g>
<g>
	<path fill="#FFFFFF" d="M744.422,199.032c0.255-0.748,0.656-1.504,0.761-2.299c3.413-26.065,6.775-52.138,10.219-78.2
		c0.369-2.794-0.594-3.804-3.354-4.185c-10.91-1.504-21.596-0.357-32.049,2.726c-18.854,5.561-31.571,18.441-40.947,35.128
		c-1.595,2.838-3.094,5.731-5.086,9.432c-3.43-14.403-6.611-27.758-9.729-40.853c-31.431,0-62.305,0-93.426,0
		c0,15.247-0.084,30.061,0.145,44.87c0.021,1.312,1.844,3.312,3.229,3.763c6.149,2.003,12.426,3.628,18.696,5.241
		c2.62,0.674,3.694,1.848,3.688,4.792c-0.104,49.148-0.094,98.296-0.024,147.444c0.004,2.863-0.844,4.098-3.781,4.589
		c-7.301,1.222-14.539,2.819-21.582,4.222c0,14.18,0,27.756,0,41.231c46.593,0,92.81,0,139.021,0c0-13.999,0-27.606,0-41.236
		c-9.234-1.771-18.172-3.717-27.196-5.104c-3.581-0.55-4.615-1.792-4.604-5.365c0.123-39.318,0.111-78.637,0.011-117.955
		c-0.008-3.082,0.899-4.748,3.741-6.093C702.571,191.521,723.203,189.846,744.422,199.032z"/>
	<path fill-rule="evenodd" clip-rule="evenodd" d="M744.422,199.032c-21.219-9.186-41.851-7.511-62.269,2.152
		c-2.842,1.345-3.749,3.011-3.741,6.093c0.1,39.318,0.112,78.637-0.011,117.955c-0.011,3.573,1.024,4.815,4.604,5.365
		c9.024,1.386,17.962,3.332,27.196,5.104c0,13.629,0,27.237,0,41.236c-46.211,0-92.428,0-139.021,0c0-13.476,0-27.052,0-41.231
		c7.042-1.402,14.281-3,21.582-4.222c2.937-0.491,3.785-1.727,3.781-4.589c-0.069-49.148-0.079-98.296,0.024-147.444
		c0.006-2.945-1.068-4.119-3.688-4.792c-6.27-1.613-12.546-3.238-18.696-5.241c-1.386-0.452-3.209-2.452-3.229-3.763
		c-0.229-14.809-0.145-29.623-0.145-44.87c31.122,0,61.995,0,93.426,0c3.119,13.095,6.299,26.449,9.729,40.853
		c1.992-3.701,3.491-6.594,5.086-9.432c9.375-16.687,22.093-29.568,40.947-35.128c10.453-3.083,21.139-4.229,32.049-2.726
		c2.76,0.38,3.723,1.391,3.354,4.185c-3.443,26.062-6.806,52.134-10.219,78.2C745.078,197.528,744.677,198.284,744.422,199.032z"/>
</g>
<g>
	<path fill-rule="evenodd" clip-rule="evenodd" d="M912.921,350.208c-2.504,2.835-4.6,5.434-6.93,7.8
		c-10.025,10.186-22.016,16.382-36.348,17.989c-13.164,1.476-26.184,1.473-39.117-1.931c-23.006-6.055-38.176-20.548-45.152-43.025
		c-6.719-21.648-7.004-43.766-0.109-65.413c7.664-24.061,26.336-36.248,49.467-42.768c19.881-5.604,40.328-6.495,60.818-6.83
		c3.291-0.054,6.582-0.007,10.289-0.007c0.234-9.982,0.523-19.41-2.752-28.517c-3.93-10.927-12.986-14.063-23.299-14.731
		c-22.473-1.456-43.506,4.193-63.738,13.478c-3.162,1.451-6.305,2.945-10.086,4.714c-7.506-17.824-14.953-35.507-22.486-53.395
		c13.672-9.946,28.447-17.077,44.316-21.668c33.273-9.626,67.025-11.765,101.168-5.121c33.432,6.506,53.215,27.34,57.697,61.271
		c1.152,8.717,1.707,17.571,1.752,26.366c0.189,36.818,0.059,73.638,0.094,110.458c0.01,10.565,2.873,13.465,13.557,14.107
		c0.832,0.05,1.664,0.105,2.496,0.118c1.322,0.02,2.645,0.005,4.502,0.005c0.473,5.411,0.984,10.653,1.375,15.905
		c0.506,6.806,0.66,13.648,1.463,20.416c0.48,4.039-1.137,5.873-4.484,7.658c-9.854,5.252-20.406,8.647-31.354,9.148
		c-11.375,0.52-22.98,0.02-34.223-1.723c-12.121-1.879-21.113-9.323-26.641-20.536C914.698,352.968,914.034,352.041,912.921,350.208
		z M905.991,258.851c-7.148,0-13.643-0.469-20.047,0.1c-12.555,1.114-20.729,7.194-22.6,18.818
		c-1.531,9.498-1.07,19.45-0.389,29.123c0.441,6.282,4.023,11.856,10.213,14.395c10.797,4.428,21.152,3.151,30.504-4.026
		c1.135-0.871,2.209-2.657,2.221-4.028C906.04,295.294,905.991,277.355,905.991,258.851z"/>
</g>
<g>
	<path fill-rule="evenodd" clip-rule="evenodd" d="M1062.972,264.743c-21.617-18.357-26.816-43.218-26.151-70.13
		c0.415-16.774,4.74-32.586,15.011-46.277c12.958-17.274,30.972-26.26,51.526-30.771c27.152-5.958,54.188-4.88,81.088,1.833
		c2.387,0.596,4.904,0.938,7.361,0.947c20.996,0.073,41.992,0.042,62.987,0.042c1.782,0,3.563,0,5.862,0c0,12.889,0,25.177,0,37.465
		c0,10.792-0.003,10.774-10.527,12.753c-4.213,0.792-8.408,1.677-13.049,2.607c0.574,2.034,0.984,3.745,1.54,5.407
		c6.192,18.514,5.516,37.109-0.187,55.472c-7.203,23.198-24.582,35.867-46.925,42.051c-26.975,7.466-54.466,8.582-82.086,3.787
		c-2.778-0.482-4.814-0.242-5.74,2.247c-1.655,4.449-3.696,9-4.06,13.627c-0.571,7.3,3.234,11.418,10.461,12.858
		c2.588,0.516,5.275,0.739,7.918,0.747c21.496,0.067,42.996-0.214,64.484,0.152c14.553,0.248,28.785,2.9,42.161,8.949
		c21.332,9.646,34.204,25.995,37.757,49.207c2.979,19.462,1.572,38.59-6.828,56.672c-10.551,22.709-29.531,35.548-52.57,42.854
		c-27.152,8.61-55.17,10.294-83.435,8.653c-17.965-1.043-35.802-3.131-52.792-9.551c-12.839-4.851-24.236-11.726-31.873-23.688
		c-15.865-24.852-7.973-55.79,17.896-69.705c3.947-2.123,8.031-3.993,11.65-5.781c-5.467-4.313-11.499-7.844-15.947-12.797
		c-17.088-19.026-15.748-53.346,2.223-74.045c4.274-4.923,8.1-10.237,12.133-15.372L1062.972,264.743z M1135.311,378.584
		C1135.311,378.35,1135.312,378.819,1135.311,378.584c-10.654,0-21.312-0.125-31.96,0.128c-1.705,0.041-4.335,1.385-4.907,2.791
		c-7.434,18.249-3.421,39.028,21.125,45.047c15.513,3.804,31.039,2.741,46.404-0.931c8.547-2.042,16.48-5.586,21.711-13.119
		c5.357-7.716,5.855-16.365,2.357-24.743c-3.067-7.349-10.34-8.302-17.31-8.412C1160.262,379.146,1147.784,378.584,1135.311,378.584
		z M1114.414,199.375c0.149,7.737,1.674,16.22,4.539,24.218c3.725,10.395,11.654,14.469,23.311,13.938
		c9.691-0.442,16.982-5.875,19.876-16.002c4.138-14.482,4.394-29.217,0.296-43.769c-3.191-11.334-10.865-16.96-22.215-17.161
		c-10.99-0.194-19.463,5.594-22.689,16.629C1115.549,184.008,1114.254,191.045,1114.414,199.375z"/>
</g>
<g>
	<path fill-rule="evenodd" clip-rule="evenodd" d="M1497.448,264.962c-43.641,0-86.574,0-130.035,0
		c-0.252,13.876,0.292,27.111,8.404,38.579c7.414,10.481,18.867,13.025,30.682,14.18c23.526,2.299,45.232-3.286,65.306-15.599
		c1.542-0.946,3.175-1.743,5.349-2.927c6.826,15.772,13.535,31.274,20.689,47.808c-7.213,4.494-14.255,9.446-21.791,13.474
		c-24.106,12.886-50.159,16.905-77.2,16.42c-19.947-0.357-39.502-2.642-58.112-10.26c-23.388-9.573-39.616-26.341-49.373-49.555
		c-7.848-18.676-10.814-38.334-11.975-58.375c-1.373-23.713-0.427-47.297,5.174-70.452c7.875-32.561,24.473-58.541,56.693-71.934
		c19.27-8.009,39.604-10.317,60.207-8.929c11.368,0.766,22.869,2.423,33.857,5.371c24.274,6.514,40.604,22.536,50.324,45.497
		c8.518,20.119,11.01,41.416,11.713,62.952C1497.826,235.502,1497.448,249.819,1497.448,264.962z M1418.552,215.696
		c0.156-15.414,0.252-30.223-3.877-44.631c-2.916-10.174-8.173-14.429-17.947-15.182c-10.142-0.781-18.005,3.26-21.993,12.225
		c-6.702,15.064-6.929,31.192-7.47,47.587C1384.567,215.696,1401.286,215.696,1418.552,215.696z"/>
</g>
</svg>
